{
	"asset":{
		"generator":"Khronos glTF Blender I/O v5.0.21",
		"version":"2.0"
	},
	"scene":0,
	"scenes":[
		{
			"extras":{
				"skybox":1,
				"light":[
					-0.6980000138282776,
					1.0,
					0.8219999670982361
				],
				"bgm":2
			},
			"name":"Scene",
			"nodes":[
				0,
				1,
				2,
				3,
				4,
				5,
				6,
				7,
				8,
				9,
				10,
				11,
				12,
				13,
				14,
				15,
				16,
				17,
				18,
				19,
				20,
				21,
				22,
				23,
				24,
				25,
				26,
				27,
				28,
				29,
				30,
				31,
				32,
				33,
				34,
				35,
				36,
				37,
				38,
				39,
				40,
				41,
				42,
				43,
				44,
				45,
				46
			]
		}
	],
	"nodes":[
		{
			"mesh":0,
			"name":"Cube",
			"rotation":[
				0,
				0.4623816907405853,
				0,
				0.8866809606552124
			],
			"translation":[
				27.81566619873047,
				28.269948959350586,
				-63.949310302734375
			]
		},
		{
			"mesh":1,
			"name":"Cube.020",
			"rotation":[
				-0.012044358998537064,
				-0.25997453927993774,
				-0.17503982782363892,
				0.9495415687561035
			],
			"scale":[
				1.530831217765808,
				0.8123531341552734,
				1.530830979347229
			],
			"translation":[
				-9.672414779663086,
				10.715038299560547,
				-6.198681831359863
			]
		},
		{
			"mesh":2,
			"name":"Cube.021",
			"rotation":[
				0.004934489727020264,
				0.03056493028998375,
				0.06574936956167221,
				0.9973557591438293
			],
			"scale":[
				2.390948534011841,
				1.194533348083496,
				2.390948534011841
			],
			"translation":[
				-1.078843593597412,
				14.664758682250977,
				-8.44528865814209
			]
		},
		{
			"mesh":3,
			"name":"Cube.022",
			"rotation":[
				0.00353827397339046,
				-0.03470462188124657,
				-0.05966592952609062,
				0.9976086616516113
			],
			"scale":[
				4.302302837371826,
				2.128358840942383,
				4.302303791046143
			],
			"translation":[
				5.06730842590332,
				21.40880012512207,
				1.7225141525268555
			]
		},
		{
			"mesh":4,
			"name":"Cube.027",
			"rotation":[
				0.004934490192681551,
				0.0305649321526289,
				0.06574937701225281,
				0.9973556995391846
			],
			"scale":[
				5.476005554199219,
				2.7358477115631104,
				5.476005554199219
			],
			"translation":[
				-17.917028427124023,
				38.84272003173828,
				-93.2770767211914
			]
		},
		{
			"mesh":5,
			"name":"Cube.028",
			"rotation":[
				-0.05820763483643532,
				-0.041736651211977005,
				0.00654727453365922,
				0.9974101781845093
			],
			"scale":[
				5.476005554199219,
				2.7358477115631104,
				5.476005554199219
			],
			"translation":[
				-23.590112686157227,
				47.27604293823242,
				-104.89485931396484
			]
		},
		{
			"mesh":6,
			"name":"Cube.029",
			"rotation":[
				0.05716908723115921,
				-0.13245490193367004,
				0.037838149815797806,
				0.9888153076171875
			],
			"scale":[
				8.517036437988281,
				4.255165100097656,
				8.517035484313965
			],
			"translation":[
				-19.567712783813477,
				55.88630676269531,
				-125.67965698242188
			]
		},
		{
			"mesh":7,
			"name":"Cube.030",
			"rotation":[
				0.03400950878858566,
				0.04721618443727493,
				-0.026013873517513275,
				0.9979666471481323
			],
			"scale":[
				9.53366756439209,
				4.7630815505981445,
				9.53366756439209
			],
			"translation":[
				-1.716042160987854,
				66.03784942626953,
				-131.9561309814453
			]
		},
		{
			"mesh":8,
			"name":"Cube.031",
			"rotation":[
				-0.05719354376196861,
				-0.2092546820640564,
				0.23215404152870178,
				0.9481803178787231
			],
			"scale":[
				9.53366756439209,
				4.763081073760986,
				9.533666610717773
			],
			"translation":[
				15.882728576660156,
				74.71546173095703,
				-130.50839233398438
			]
		},
		{
			"mesh":9,
			"name":"Cube.032",
			"rotation":[
				-0.05298161879181862,
				-0.13430191576480865,
				-0.0006240218062885106,
				0.9895228743553162
			],
			"scale":[
				5.476005554199219,
				2.7358477115631104,
				5.476005554199219
			],
			"translation":[
				-1.8521931171417236,
				48.11557388305664,
				-91.76537322998047
			]
		},
		{
			"mesh":10,
			"name":"Cube.033",
			"rotation":[
				-0.01857837848365307,
				0.0007735882536508143,
				0.261862576007843,
				0.9649261236190796
			],
			"scale":[
				5.476005554199219,
				2.7358477115631104,
				5.4760050773620605
			],
			"translation":[
				8.232308387756348,
				58.131813049316406,
				-95.03988647460938
			]
		},
		{
			"mesh":11,
			"name":"Cube.034",
			"rotation":[
				-0.0654333159327507,
				-0.035208411514759064,
				0.02154320850968361,
				0.997002899646759
			],
			"scale":[
				5.476005554199219,
				2.7358477115631104,
				5.476005554199219
			],
			"translation":[
				27.942291259765625,
				68.99249267578125,
				-95.3274917602539
			]
		},
		{
			"mesh":12,
			"name":"Cube.035",
			"rotation":[
				0.01426534540951252,
				-0.015137801878154278,
				0.0043772063218057156,
				0.9997740983963013
			],
			"scale":[
				5.476005554199219,
				2.7358477115631104,
				5.476005554199219
			],
			"translation":[
				53.7757453918457,
				72.75294494628906,
				-113.05061340332031
			]
		},
		{
			"mesh":13,
			"name":"Model.001",
			"rotation":[
				0.047502465546131134,
				-0.9374750852584839,
				-0.014363585971295834,
				0.34449633955955505
			],
			"scale":[
				0.45268988609313965,
				0.4526900053024292,
				0.45269033312797546
			],
			"translation":[
				6.1803178787231445,
				84.49951171875,
				-117.57260131835938
			]
		},
		{
			"extras":{
				"npc":1,
				"dialogue":"",
				"name":"LIZARD"
			},
			"name":"Empty",
			"rotation":[
				0,
				0.6841503977775574,
				0,
				0.7293409705162048
			],
			"scale":[
				0.19154006242752075,
				0.19154006242752075,
				0.19154006242752075
			],
			"translation":[
				-17.29093360900879,
				11.065695762634277,
				-22.773155212402344
			]
		},
		{
			"extras":{
				"npc":1,
				"dialogue":"",
				"name":"LIZARD"
			},
			"name":"Empty.001",
			"rotation":[
				0,
				-0.9342511296272278,
				0,
				0.3566158711910248
			],
			"scale":[
				0.19154006242752075,
				0.19154006242752075,
				0.19154006242752075
			],
			"translation":[
				3.5382814407348633,
				20.75105857849121,
				-29.915456771850586
			]
		},
		{
			"mesh":14,
			"name":"vertex colour test",
			"scale":[
				3.16479754447937,
				3.16479754447937,
				3.16479754447937
			],
			"translation":[
				11.27314281463623,
				14.727935791015625,
				-16.48180389404297
			]
		},
		{
			"mesh":15,
			"name":"Cube.004",
			"scale":[
				3.734217882156372,
				9.369878768920898,
				3.734217882156372
			],
			"translation":[
				-16.437294006347656,
				1.826159954071045,
				-22.770816802978516
			]
		},
		{
			"mesh":16,
			"name":"Cube.007",
			"scale":[
				1.0980719327926636,
				1.0980719327926636,
				1.0980719327926636
			],
			"translation":[
				33.83539962768555,
				-0.03519582748413086,
				13.403030395507812
			]
		},
		{
			"mesh":17,
			"name":"Cube.009",
			"scale":[
				3.734217882156372,
				9.369878768920898,
				3.734217882156372
			],
			"translation":[
				22.73902130126953,
				8.654848098754883,
				-34.516212463378906
			]
		},
		{
			"mesh":18,
			"name":"Cube.003",
			"scale":[
				1.0980719327926636,
				1.0980719327926636,
				1.0980719327926636
			],
			"translation":[
				-2.0313191413879395,
				15.232342720031738,
				-36.51222229003906
			]
		},
		{
			"mesh":19,
			"name":"Cube.005",
			"scale":[
				1.0980719327926636,
				1.0980719327926636,
				1.0980719327926636
			],
			"translation":[
				10.969888687133789,
				14.455894470214844,
				-36.362552642822266
			]
		},
		{
			"mesh":20,
			"name":"Cube.006",
			"rotation":[
				-0.15882323682308197,
				0.003440894652158022,
				0.006917091086506844,
				0.9872767925262451
			],
			"scale":[
				1.0980719327926636,
				1.0980719327926636,
				1.0980719327926636
			],
			"translation":[
				6.181573867797852,
				2.1778650283813477,
				14.200592041015625
			]
		},
		{
			"mesh":21,
			"name":"Cube.008",
			"rotation":[
				-0.10030530393123627,
				-0.01778380572795868,
				-0.010542327538132668,
				0.9947419166564941
			],
			"scale":[
				1.098071813583374,
				1.0980719327926636,
				1.0980719327926636
			],
			"translation":[
				-18.213977813720703,
				5.518794059753418,
				-11.254264831542969
			]
		},
		{
			"mesh":22,
			"name":"Cube.010",
			"rotation":[
				0.020144883543252945,
				0.003571623470634222,
				0.0021172738634049892,
				0.9997884631156921
			],
			"scale":[
				1.0980720520019531,
				1.0980719327926636,
				1.0980719327926636
			],
			"translation":[
				-11.437420845031738,
				1.4812953472137451,
				-1.64397132396698
			]
		},
		{
			"mesh":23,
			"name":"Cube.018",
			"scale":[
				3.734217882156372,
				9.369878768920898,
				3.734217882156372
			],
			"translation":[
				-10.619635581970215,
				8.474006652832031,
				-35.54054641723633
			]
		},
		{
			"mesh":24,
			"name":"Cylinder",
			"scale":[
				1.6120465993881226,
				1.6120465993881226,
				1.6120465993881226
			],
			"translation":[
				-1.1819629669189453,
				-2.4137892723083496,
				-13.331703186035156
			]
		},
		{
			"mesh":25,
			"name":"Cube.001",
			"scale":[
				2.9873604774475098,
				2.9873604774475098,
				2.9873604774475098
			],
			"translation":[
				8.155895233154297,
				10.195685386657715,
				-69.39015197753906
			]
		},
		{
			"mesh":26,
			"name":"Cube.002",
			"rotation":[
				-0.08527720719575882,
				-0.011185281910002232,
				0.023809820413589478,
				0.9960099458694458
			],
			"scale":[
				1.8994204998016357,
				4.786917686462402,
				1.8994206190109253
			],
			"translation":[
				5,
				51,
				-109
			]
		},
		{
			"mesh":27,
			"name":"Cube.011",
			"rotation":[
				-0.15095436573028564,
				-0.014807798899710178,
				-0.02661082148551941,
				0.988071620464325
			],
			"scale":[
				1.8994203805923462,
				4.786917686462402,
				1.8994206190109253
			],
			"translation":[
				41.83369445800781,
				40.34882354736328,
				-109.262939453125
			]
		},
		{
			"mesh":28,
			"name":"Cube.012",
			"scale":[
				1.0980719327926636,
				1.0980719327926636,
				1.0980719327926636
			],
			"translation":[
				65.98239135742188,
				-24.013933181762695,
				-45.52672576904297
			]
		},
		{
			"mesh":29,
			"name":"Cube.013",
			"rotation":[
				-0.15095436573028564,
				-0.014807798899710178,
				-0.02661082148551941,
				0.988071620464325
			],
			"scale":[
				1.8994203805923462,
				4.786917686462402,
				1.8994206190109253
			],
			"translation":[
				41.83369445800781,
				40.34882354736328,
				-109.262939453125
			]
		},
		{
			"mesh":30,
			"name":"Cube.014",
			"rotation":[
				-0.15095436573028564,
				-0.014807798899710178,
				-0.02661082148551941,
				0.988071620464325
			],
			"scale":[
				1.8994203805923462,
				4.786917686462402,
				1.8994206190109253
			],
			"translation":[
				41.83369445800781,
				40.34882354736328,
				-109.262939453125
			]
		},
		{
			"extras":{
				"level":0,
				"spawn":[
					2.4306800365448,
					12.491800308227539,
					70.92610168457031
				]
			},
			"mesh":31,
			"name":"Cube.015",
			"scale":[
				1.0980719327926636,
				1.0980719327926636,
				1.0980719327926636
			],
			"translation":[
				-1.1669917106628418,
				2.9055237770080566,
				-28.40423011779785
			]
		},
		{
			"mesh":32,
			"name":"Cube.016",
			"scale":[
				1.0980719327926636,
				1.0980719327926636,
				1.0980719327926636
			],
			"translation":[
				-2.0313191413879395,
				15.232342720031738,
				-36.51222229003906
			]
		},
		{
			"mesh":33,
			"name":"Cube.017",
			"scale":[
				1.0980719327926636,
				1.0980719327926636,
				1.0980719327926636
			],
			"translation":[
				-2.0313191413879395,
				15.232342720031738,
				-36.51222229003906
			]
		},
		{
			"mesh":34,
			"name":"Cylinder.001",
			"rotation":[
				-0.042537715286016464,
				-0.14918915927410126,
				0.15404343605041504,
				0.9758092761039734
			],
			"scale":[
				2.335775375366211,
				2.33577561378479,
				2.335775375366211
			],
			"translation":[
				-49.62675476074219,
				-18.69907569885254,
				-112.00465393066406
			]
		},
		{
			"mesh":35,
			"name":"Cube.019",
			"rotation":[
				-0.7453498244285583,
				-0.15155847370624542,
				-0.5657520294189453,
				0.31844669580459595
			],
			"scale":[
				2.987360715866089,
				2.9873604774475098,
				2.9873604774475098
			],
			"translation":[
				-100.35504913330078,
				-25.922000885009766,
				-96.7838134765625
			]
		},
		{
			"mesh":36,
			"name":"Cube.023",
			"rotation":[
				-0.060693010687828064,
				-0.03474491089582443,
				-0.13775117695331573,
				0.987994909286499
			],
			"scale":[
				1.3683867454528809,
				1.3683868646621704,
				1.3683867454528809
			],
			"translation":[
				34.859493255615234,
				-8.98880386352539,
				-16.177288055419922
			]
		},
		{
			"mesh":37,
			"name":"Cube.024",
			"rotation":[
				0,
				0.24309317767620087,
				0,
				0.9700029492378235
			],
			"scale":[
				2.633478879928589,
				7.22132682800293,
				1.1344621181488037
			],
			"translation":[
				46.21693801879883,
				-16.469924926757812,
				-44.8984260559082
			]
		},
		{
			"mesh":38,
			"name":"Cube.025",
			"rotation":[
				0,
				-0.9999815225601196,
				0,
				0.0060948519967496395
			],
			"scale":[
				4.47371768951416,
				18.973421096801758,
				1.7975236177444458
			],
			"translation":[
				34.4854736328125,
				31.096328735351562,
				-52.77370834350586
			]
		},
		{
			"mesh":39,
			"name":"Cube.026",
			"rotation":[
				0,
				-0.7422155141830444,
				0,
				0.670161247253418
			],
			"scale":[
				4.007839202880859,
				16.99758529663086,
				1.610334873199463
			],
			"translation":[
				39.84697723388672,
				28.483381271362305,
				-60.24091339111328
			]
		},
		{
			"mesh":40,
			"name":"Cube.037",
			"scale":[
				1.0980719327926636,
				1.0980719327926636,
				1.0980719327926636
			],
			"translation":[
				45.869266510009766,
				37.07749938964844,
				-44.85826873779297
			]
		},
		{
			"mesh":41,
			"name":"Cube.038",
			"rotation":[
				0,
				-0.9982370138168335,
				0,
				0.059354402124881744
			],
			"scale":[
				2.9873604774475098,
				2.9873604774475098,
				2.9873604774475098
			],
			"translation":[
				3.525501251220703,
				21.20256233215332,
				26.16309928894043
			]
		},
		{
			"mesh":42,
			"name":"Cube.039",
			"rotation":[
				-0.21998220682144165,
				0.9633539319038391,
				0.08267464488744736,
				0.1293133646249771
			],
			"scale":[
				2.987360715866089,
				2.9873604774475098,
				2.9873604774475098
			],
			"translation":[
				9.184715270996094,
				29.343435287475586,
				50.26448440551758
			]
		},
		{
			"mesh":43,
			"name":"Cube.040",
			"rotation":[
				-0.08923499286174774,
				0.9860240817070007,
				-0.1401858776807785,
				0.011898272670805454
			],
			"scale":[
				2.9873604774475098,
				2.9873604774475098,
				2.9873604774475098
			],
			"translation":[
				9.97343635559082,
				33.818546295166016,
				75.53871154785156
			]
		},
		{
			"extras":{
				"level":2,
				"spawn":[
					0.0,
					0.0,
					0.0
				]
			},
			"mesh":44,
			"name":"Cube.036",
			"scale":[
				1.9077695608139038,
				1.9077695608139038,
				1.9077695608139038
			],
			"translation":[
				11.337846755981445,
				52.50391387939453,
				107.37445831298828
			]
		}
	],
	"materials":[
		{
			"doubleSided":true,
			"emissiveFactor":[
				1,
				1,
				1
			],
			"emissiveTexture":{
				"index":0
			},
			"name":"Material",
			"pbrMetallicRoughness":{
				"baseColorFactor":[
					0,
					0,
					0,
					1
				]
			}
		},
		{
			"doubleSided":true,
			"emissiveFactor":[
				1,
				1,
				1
			],
			"emissiveTexture":{
				"index":1
			},
			"name":"Material.004",
			"pbrMetallicRoughness":{
				"baseColorFactor":[
					0,
					0,
					0,
					1
				]
			}
		},
		{
			"doubleSided":true,
			"emissiveFactor":[
				1,
				1,
				1
			],
			"emissiveTexture":{
				"index":2
			},
			"name":"Material.001",
			"pbrMetallicRoughness":{
				"baseColorFactor":[
					0,
					0,
					0,
					1
				]
			}
		},
		{
			"doubleSided":true,
			"emissiveFactor":[
				1,
				1,
				1
			],
			"emissiveTexture":{
				"index":3
			},
			"name":"Material.002",
			"pbrMetallicRoughness":{
				"baseColorFactor":[
					0,
					0,
					0,
					1
				]
			}
		}
	],
	"meshes":[
		{
			"extras":{
				"level":1
			},
			"name":"Cube",
			"primitives":[
				{
					"attributes":{
						"POSITION":0,
						"NORMAL":1,
						"TEXCOORD_0":2
					},
					"indices":3,
					"material":0
				}
			]
		},
		{
			"name":"Cube.019",
			"primitives":[
				{
					"attributes":{
						"POSITION":4,
						"NORMAL":5,
						"TEXCOORD_0":6
					},
					"indices":7,
					"material":0
				}
			]
		},
		{
			"name":"Cube.021",
			"primitives":[
				{
					"attributes":{
						"POSITION":8,
						"NORMAL":9,
						"TEXCOORD_0":10
					},
					"indices":7,
					"material":0
				}
			]
		},
		{
			"name":"Cube.022",
			"primitives":[
				{
					"attributes":{
						"POSITION":11,
						"NORMAL":12,
						"TEXCOORD_0":13
					},
					"indices":7,
					"material":0
				}
			]
		},
		{
			"name":"Cube.027",
			"primitives":[
				{
					"attributes":{
						"POSITION":14,
						"NORMAL":15,
						"TEXCOORD_0":16
					},
					"indices":7,
					"material":0
				}
			]
		},
		{
			"name":"Cube.028",
			"primitives":[
				{
					"attributes":{
						"POSITION":17,
						"NORMAL":18,
						"TEXCOORD_0":19
					},
					"indices":7,
					"material":0
				}
			]
		},
		{
			"name":"Cube.029",
			"primitives":[
				{
					"attributes":{
						"POSITION":20,
						"NORMAL":21,
						"TEXCOORD_0":22
					},
					"indices":7,
					"material":0
				}
			]
		},
		{
			"name":"Cube.030",
			"primitives":[
				{
					"attributes":{
						"POSITION":23,
						"NORMAL":24,
						"TEXCOORD_0":25
					},
					"indices":7,
					"material":0
				}
			]
		},
		{
			"name":"Cube.031",
			"primitives":[
				{
					"attributes":{
						"POSITION":26,
						"NORMAL":27,
						"TEXCOORD_0":28
					},
					"indices":7,
					"material":0
				}
			]
		},
		{
			"name":"Cube.032",
			"primitives":[
				{
					"attributes":{
						"POSITION":29,
						"NORMAL":30,
						"TEXCOORD_0":31
					},
					"indices":7,
					"material":0
				}
			]
		},
		{
			"name":"Cube.033",
			"primitives":[
				{
					"attributes":{
						"POSITION":32,
						"NORMAL":33,
						"TEXCOORD_0":34
					},
					"indices":7,
					"material":0
				}
			]
		},
		{
			"name":"Cube.034",
			"primitives":[
				{
					"attributes":{
						"POSITION":35,
						"NORMAL":36,
						"TEXCOORD_0":37
					},
					"indices":7,
					"material":0
				}
			]
		},
		{
			"name":"Cube.035",
			"primitives":[
				{
					"attributes":{
						"POSITION":38,
						"NORMAL":39,
						"TEXCOORD_0":40
					},
					"indices":7,
					"material":0
				}
			]
		},
		{
			"extras":{
				"nonsolid":true
			},
			"name":"Model.001",
			"primitives":[
				{
					"attributes":{
						"POSITION":41,
						"NORMAL":42,
						"TEXCOORD_0":43
					},
					"indices":44,
					"material":1
				}
			]
		},
		{
			"name":"Cube.041",
			"primitives":[
				{
					"attributes":{
						"POSITION":45,
						"NORMAL":46,
						"TEXCOORD_0":47,
						"COLOR_0":48,
						"COLOR_1":49
					},
					"indices":50,
					"material":1
				}
			]
		},
		{
			"name":"Cube.004",
			"primitives":[
				{
					"attributes":{
						"POSITION":51,
						"NORMAL":52,
						"TEXCOORD_0":53
					},
					"indices":54,
					"material":0
				}
			]
		},
		{
			"name":"Cube.007",
			"primitives":[
				{
					"attributes":{
						"POSITION":55,
						"NORMAL":56,
						"TEXCOORD_0":57
					},
					"indices":58,
					"material":0
				}
			]
		},
		{
			"name":"Cube.009",
			"primitives":[
				{
					"attributes":{
						"POSITION":59,
						"NORMAL":60,
						"TEXCOORD_0":61
					},
					"indices":62,
					"material":0
				}
			]
		},
		{
			"name":"Cube.012",
			"primitives":[
				{
					"attributes":{
						"POSITION":63,
						"NORMAL":64,
						"TEXCOORD_0":65
					},
					"indices":66,
					"material":0
				}
			]
		},
		{
			"name":"Cube.013",
			"primitives":[
				{
					"attributes":{
						"POSITION":67,
						"NORMAL":68,
						"TEXCOORD_0":69
					},
					"indices":70,
					"material":0
				}
			]
		},
		{
			"name":"Cube.014",
			"primitives":[
				{
					"attributes":{
						"POSITION":71,
						"NORMAL":72,
						"TEXCOORD_0":73
					},
					"indices":74,
					"material":1
				}
			]
		},
		{
			"name":"Cube.015",
			"primitives":[
				{
					"attributes":{
						"POSITION":75,
						"NORMAL":76,
						"TEXCOORD_0":77
					},
					"indices":78,
					"material":0
				}
			]
		},
		{
			"name":"Cube.016",
			"primitives":[
				{
					"attributes":{
						"POSITION":79,
						"NORMAL":80,
						"TEXCOORD_0":81
					},
					"indices":82,
					"material":0
				}
			]
		},
		{
			"name":"Cube.018",
			"primitives":[
				{
					"attributes":{
						"POSITION":83,
						"NORMAL":84,
						"TEXCOORD_0":85
					},
					"indices":54,
					"material":0
				}
			]
		},
		{
			"name":"Cylinder",
			"primitives":[
				{
					"attributes":{
						"POSITION":86,
						"NORMAL":87,
						"TEXCOORD_0":88
					},
					"indices":89,
					"material":2
				}
			]
		},
		{
			"name":"Cube.001",
			"primitives":[
				{
					"attributes":{
						"POSITION":90,
						"NORMAL":91,
						"TEXCOORD_0":92
					},
					"indices":93,
					"material":3
				}
			]
		},
		{
			"name":"Cube.002",
			"primitives":[
				{
					"attributes":{
						"POSITION":94,
						"NORMAL":95,
						"TEXCOORD_0":96
					},
					"indices":97,
					"material":1
				}
			]
		},
		{
			"name":"Cube.003",
			"primitives":[
				{
					"attributes":{
						"POSITION":98,
						"NORMAL":99,
						"TEXCOORD_0":100
					},
					"indices":101,
					"material":0
				}
			]
		},
		{
			"name":"Cube.005",
			"primitives":[
				{
					"attributes":{
						"POSITION":102,
						"NORMAL":103,
						"TEXCOORD_0":104
					},
					"indices":58,
					"material":0
				}
			]
		},
		{
			"name":"Cube.006",
			"primitives":[
				{
					"attributes":{
						"POSITION":105,
						"NORMAL":106,
						"TEXCOORD_0":107
					},
					"indices":108,
					"material":0
				}
			]
		},
		{
			"name":"Cube.008",
			"primitives":[
				{
					"attributes":{
						"POSITION":109,
						"NORMAL":110,
						"TEXCOORD_0":111
					},
					"indices":112,
					"material":0
				}
			]
		},
		{
			"extras":{
				"level":0,
				"spawn":[
					2.4306800365448,
					12.491800308227539,
					70.92610168457031
				]
			},
			"name":"Cube.010",
			"primitives":[
				{
					"attributes":{
						"POSITION":113,
						"NORMAL":114,
						"TEXCOORD_0":115
					},
					"indices":82,
					"material":2
				}
			]
		},
		{
			"name":"Cube.011",
			"primitives":[
				{
					"attributes":{
						"POSITION":116,
						"NORMAL":117,
						"TEXCOORD_0":118
					},
					"indices":119,
					"material":0
				}
			]
		},
		{
			"name":"Cube.017",
			"primitives":[
				{
					"attributes":{
						"POSITION":120,
						"NORMAL":121,
						"TEXCOORD_0":122
					},
					"indices":123,
					"material":0
				}
			]
		},
		{
			"name":"Cylinder.001",
			"primitives":[
				{
					"attributes":{
						"POSITION":124,
						"NORMAL":125,
						"TEXCOORD_0":126
					},
					"indices":89,
					"material":2
				}
			]
		},
		{
			"name":"Cube.020",
			"primitives":[
				{
					"attributes":{
						"POSITION":127,
						"NORMAL":128,
						"TEXCOORD_0":129
					},
					"indices":130,
					"material":1
				}
			]
		},
		{
			"name":"Cube.023",
			"primitives":[
				{
					"attributes":{
						"POSITION":131,
						"NORMAL":132,
						"TEXCOORD_0":133
					},
					"indices":82,
					"material":0
				}
			]
		},
		{
			"name":"Cube.024",
			"primitives":[
				{
					"attributes":{
						"POSITION":134,
						"NORMAL":135,
						"TEXCOORD_0":136
					},
					"indices":62,
					"material":0
				}
			]
		},
		{
			"name":"Cube.025",
			"primitives":[
				{
					"attributes":{
						"POSITION":137,
						"NORMAL":138,
						"TEXCOORD_0":139
					},
					"indices":62,
					"material":0
				}
			]
		},
		{
			"name":"Cube.026",
			"primitives":[
				{
					"attributes":{
						"POSITION":140,
						"NORMAL":141,
						"TEXCOORD_0":142
					},
					"indices":62,
					"material":0
				}
			]
		},
		{
			"extras":{
				"level":0,
				"spawn":[
					2.4306800365448,
					12.491800308227539,
					70.92610168457031
				]
			},
			"name":"Cube.037",
			"primitives":[
				{
					"attributes":{
						"POSITION":143,
						"NORMAL":144,
						"TEXCOORD_0":145
					},
					"indices":82,
					"material":2
				}
			]
		},
		{
			"name":"Cube.038",
			"primitives":[
				{
					"attributes":{
						"POSITION":146,
						"NORMAL":147,
						"TEXCOORD_0":148
					},
					"indices":97,
					"material":1
				}
			]
		},
		{
			"name":"Cube.039",
			"primitives":[
				{
					"attributes":{
						"POSITION":149,
						"NORMAL":150,
						"TEXCOORD_0":151
					},
					"indices":97,
					"material":1
				}
			]
		},
		{
			"name":"Cube.040",
			"primitives":[
				{
					"attributes":{
						"POSITION":152,
						"NORMAL":153,
						"TEXCOORD_0":154
					},
					"indices":155,
					"material":3
				}
			]
		},
		{
			"extras":{
				"level":0,
				"spawn":[
					2.4306800365448,
					12.491800308227539,
					70.92610168457031
				]
			},
			"name":"Cube.036",
			"primitives":[
				{
					"attributes":{
						"POSITION":156,
						"NORMAL":157,
						"TEXCOORD_0":158
					},
					"indices":82,
					"material":2
				}
			]
		}
	],
	"textures":[
		{
			"sampler":0,
			"source":0
		},
		{
			"sampler":0,
			"source":1
		},
		{
			"sampler":0,
			"source":2
		},
		{
			"sampler":0,
			"source":3
		}
	],
	"images":[
		{
			"mimeType":"image/jpeg",
			"name":"82-05 FB RGB",
			"uri":"82-05%20FB%20RGB.jpg"
		},
		{
			"mimeType":"image/jpeg",
			"name":"th-3357577538",
			"uri":"th-3357577538.jpg"
		},
		{
			"mimeType":"image/jpeg",
			"name":"download - 2020-10-21T151401.527",
			"uri":"download%20-%202020-10-21T151401.527.jpg"
		},
		{
			"mimeType":"image/png",
			"name":"Maggie-Roberts-The-Other-Side-of-the-Octopus-2018-TP-WEB",
			"uri":"Maggie-Roberts-The-Other-Side-of-the-Octopus-2018-TP-WEB.png"
		}
	],
	"accessors":[
		{
			"bufferView":0,
			"componentType":5126,
			"count":365,
			"max":[
				1.3856873512268066,
				5.799676895141602,
				1.9180378913879395
			],
			"min":[
				-1.3856815099716187,
				-1.3075637817382812,
				-3.147723913192749
			],
			"type":"VEC3"
		},
		{
			"bufferView":1,
			"componentType":5126,
			"count":365,
			"type":"VEC3"
		},
		{
			"bufferView":2,
			"componentType":5126,
			"count":365,
			"type":"VEC2"
		},
		{
			"bufferView":3,
			"componentType":5123,
			"count":1164,
			"type":"SCALAR"
		},
		{
			"bufferView":4,
			"componentType":5126,
			"count":14,
			"max":[
				1,
				1,
				1
			],
			"min":[
				-1,
				-1,
				-1
			],
			"type":"VEC3"
		},
		{
			"bufferView":5,
			"componentType":5126,
			"count":14,
			"type":"VEC3"
		},
		{
			"bufferView":6,
			"componentType":5126,
			"count":14,
			"type":"VEC2"
		},
		{
			"bufferView":7,
			"componentType":5123,
			"count":36,
			"type":"SCALAR"
		},
		{
			"bufferView":8,
			"componentType":5126,
			"count":14,
			"max":[
				1,
				1,
				1
			],
			"min":[
				-1,
				-1,
				-1
			],
			"type":"VEC3"
		},
		{
			"bufferView":9,
			"componentType":5126,
			"count":14,
			"type":"VEC3"
		},
		{
			"bufferView":10,
			"componentType":5126,
			"count":14,
			"type":"VEC2"
		},
		{
			"bufferView":11,
			"componentType":5126,
			"count":14,
			"max":[
				1.0656505823135376,
				-0.1045072078704834,
				1.0016059875488281
			],
			"min":[
				-1,
				-1,
				-1
			],
			"type":"VEC3"
		},
		{
			"bufferView":12,
			"componentType":5126,
			"count":14,
			"type":"VEC3"
		},
		{
			"bufferView":13,
			"componentType":5126,
			"count":14,
			"type":"VEC2"
		},
		{
			"bufferView":14,
			"componentType":5126,
			"count":14,
			"max":[
				1,
				-0.20827269554138184,
				1
			],
			"min":[
				-1,
				-1,
				-1
			],
			"type":"VEC3"
		},
		{
			"bufferView":15,
			"componentType":5126,
			"count":14,
			"type":"VEC3"
		},
		{
			"bufferView":16,
			"componentType":5126,
			"count":14,
			"type":"VEC2"
		},
		{
			"bufferView":17,
			"componentType":5126,
			"count":14,
			"max":[
				1,
				-0.20827269554138184,
				1
			],
			"min":[
				-1,
				-1,
				-1
			],
			"type":"VEC3"
		},
		{
			"bufferView":18,
			"componentType":5126,
			"count":14,
			"type":"VEC3"
		},
		{
			"bufferView":19,
			"componentType":5126,
			"count":14,
			"type":"VEC2"
		},
		{
			"bufferView":20,
			"componentType":5126,
			"count":14,
			"max":[
				1,
				-0.20827269554138184,
				1
			],
			"min":[
				-1,
				-1,
				-1
			],
			"type":"VEC3"
		},
		{
			"bufferView":21,
			"componentType":5126,
			"count":14,
			"type":"VEC3"
		},
		{
			"bufferView":22,
			"componentType":5126,
			"count":14,
			"type":"VEC2"
		},
		{
			"bufferView":23,
			"componentType":5126,
			"count":14,
			"max":[
				1,
				-0.20827269554138184,
				1
			],
			"min":[
				-1,
				-1,
				-1
			],
			"type":"VEC3"
		},
		{
			"bufferView":24,
			"componentType":5126,
			"count":14,
			"type":"VEC3"
		},
		{
			"bufferView":25,
			"componentType":5126,
			"count":14,
			"type":"VEC2"
		},
		{
			"bufferView":26,
			"componentType":5126,
			"count":14,
			"max":[
				1,
				-0.20827269554138184,
				1
			],
			"min":[
				-1,
				-1,
				-1
			],
			"type":"VEC3"
		},
		{
			"bufferView":27,
			"componentType":5126,
			"count":14,
			"type":"VEC3"
		},
		{
			"bufferView":28,
			"componentType":5126,
			"count":14,
			"type":"VEC2"
		},
		{
			"bufferView":29,
			"componentType":5126,
			"count":14,
			"max":[
				1,
				-0.20827269554138184,
				1
			],
			"min":[
				-1,
				-1,
				-1
			],
			"type":"VEC3"
		},
		{
			"bufferView":30,
			"componentType":5126,
			"count":14,
			"type":"VEC3"
		},
		{
			"bufferView":31,
			"componentType":5126,
			"count":14,
			"type":"VEC2"
		},
		{
			"bufferView":32,
			"componentType":5126,
			"count":14,
			"max":[
				1,
				-0.20827269554138184,
				1
			],
			"min":[
				-1,
				-1,
				-1
			],
			"type":"VEC3"
		},
		{
			"bufferView":33,
			"componentType":5126,
			"count":14,
			"type":"VEC3"
		},
		{
			"bufferView":34,
			"componentType":5126,
			"count":14,
			"type":"VEC2"
		},
		{
			"bufferView":35,
			"componentType":5126,
			"count":14,
			"max":[
				1,
				-0.20827269554138184,
				1
			],
			"min":[
				-1,
				-1,
				-1
			],
			"type":"VEC3"
		},
		{
			"bufferView":36,
			"componentType":5126,
			"count":14,
			"type":"VEC3"
		},
		{
			"bufferView":37,
			"componentType":5126,
			"count":14,
			"type":"VEC2"
		},
		{
			"bufferView":38,
			"componentType":5126,
			"count":14,
			"max":[
				1,
				-0.20827269554138184,
				1
			],
			"min":[
				-1,
				-1,
				0.2535210847854614
			],
			"type":"VEC3"
		},
		{
			"bufferView":39,
			"componentType":5126,
			"count":14,
			"type":"VEC3"
		},
		{
			"bufferView":40,
			"componentType":5126,
			"count":14,
			"type":"VEC2"
		},
		{
			"bufferView":41,
			"componentType":5126,
			"count":15098,
			"max":[
				35.25361251831055,
				23.733728408813477,
				29.483213424682617
			],
			"min":[
				-27.33304214477539,
				-20.796464920043945,
				-33.85342025756836
			],
			"type":"VEC3"
		},
		{
			"bufferView":42,
			"componentType":5126,
			"count":15098,
			"type":"VEC3"
		},
		{
			"bufferView":43,
			"componentType":5126,
			"count":15098,
			"type":"VEC2"
		},
		{
			"bufferView":44,
			"componentType":5123,
			"count":80052,
			"type":"SCALAR"
		},
		{
			"bufferView":45,
			"componentType":5126,
			"count":24,
			"max":[
				1,
				1,
				1
			],
			"min":[
				-1,
				-1,
				-1
			],
			"type":"VEC3"
		},
		{
			"bufferView":46,
			"componentType":5126,
			"count":24,
			"type":"VEC3"
		},
		{
			"bufferView":47,
			"componentType":5126,
			"count":24,
			"type":"VEC2"
		},
		{
			"bufferView":48,
			"componentType":5121,
			"count":24,
			"normalized":true,
			"type":"VEC4"
		},
		{
			"bufferView":49,
			"componentType":5123,
			"count":24,
			"normalized":true,
			"type":"VEC4"
		},
		{
			"bufferView":50,
			"componentType":5123,
			"count":36,
			"type":"SCALAR"
		},
		{
			"bufferView":51,
			"componentType":5126,
			"count":51,
			"max":[
				3.13867449760437,
				0.946384072303772,
				3.128389835357666
			],
			"min":[
				-3.138672113418579,
				-0.10249954462051392,
				-3.1283864974975586
			],
			"type":"VEC3"
		},
		{
			"bufferView":52,
			"componentType":5126,
			"count":51,
			"type":"VEC3"
		},
		{
			"bufferView":53,
			"componentType":5126,
			"count":51,
			"type":"VEC2"
		},
		{
			"bufferView":54,
			"componentType":5123,
			"count":240,
			"type":"SCALAR"
		},
		{
			"bufferView":55,
			"componentType":5126,
			"count":24,
			"max":[
				2.654801845550537,
				5.730880260467529,
				-17.18256950378418
			],
			"min":[
				-22.147560119628906,
				3.7308802604675293,
				-27.018327713012695
			],
			"type":"VEC3"
		},
		{
			"bufferView":56,
			"componentType":5126,
			"count":24,
			"type":"VEC3"
		},
		{
			"bufferView":57,
			"componentType":5126,
			"count":24,
			"type":"VEC2"
		},
		{
			"bufferView":58,
			"componentType":5123,
			"count":36,
			"type":"SCALAR"
		},
		{
			"bufferView":59,
			"componentType":5126,
			"count":24,
			"max":[
				1.991323471069336,
				1.0129681825637817,
				3.946859121322632
			],
			"min":[
				-1.9913244247436523,
				-0.3417038917541504,
				-3.9468533992767334
			],
			"type":"VEC3"
		},
		{
			"bufferView":60,
			"componentType":5126,
			"count":24,
			"type":"VEC3"
		},
		{
			"bufferView":61,
			"componentType":5126,
			"count":24,
			"type":"VEC2"
		},
		{
			"bufferView":62,
			"componentType":5123,
			"count":36,
			"type":"SCALAR"
		},
		{
			"bufferView":63,
			"componentType":5126,
			"count":16,
			"max":[
				-0.6832666397094727,
				-9.086024284362793,
				8.484848022460938
			],
			"min":[
				-7.461452484130859,
				-14.072980880737305,
				-8.484854698181152
			],
			"type":"VEC3"
		},
		{
			"bufferView":64,
			"componentType":5126,
			"count":16,
			"type":"VEC3"
		},
		{
			"bufferView":65,
			"componentType":5126,
			"count":16,
			"type":"VEC2"
		},
		{
			"bufferView":66,
			"componentType":5123,
			"count":36,
			"type":"SCALAR"
		},
		{
			"bufferView":67,
			"componentType":5126,
			"count":24,
			"max":[
				4.324699878692627,
				0.9999998807907104,
				4.917875289916992
			],
			"min":[
				-4.32471227645874,
				-0.9999998807907104,
				-4.917882442474365
			],
			"type":"VEC3"
		},
		{
			"bufferView":68,
			"componentType":5126,
			"count":24,
			"type":"VEC3"
		},
		{
			"bufferView":69,
			"componentType":5126,
			"count":24,
			"type":"VEC2"
		},
		{
			"bufferView":70,
			"componentType":5123,
			"count":36,
			"type":"SCALAR"
		},
		{
			"bufferView":71,
			"componentType":5126,
			"count":42,
			"max":[
				10.43991470336914,
				0.9999998807907104,
				6.723372459411621
			],
			"min":[
				-10.439926147460938,
				-0.9999998807907104,
				-6.695117950439453
			],
			"type":"VEC3"
		},
		{
			"bufferView":72,
			"componentType":5126,
			"count":42,
			"type":"VEC3"
		},
		{
			"bufferView":73,
			"componentType":5126,
			"count":42,
			"type":"VEC2"
		},
		{
			"bufferView":74,
			"componentType":5123,
			"count":96,
			"type":"SCALAR"
		},
		{
			"bufferView":75,
			"componentType":5126,
			"count":24,
			"max":[
				4.324699878692627,
				0.9999998807907104,
				4.917875289916992
			],
			"min":[
				-4.32471227645874,
				-0.9999998807907104,
				-4.917882442474365
			],
			"type":"VEC3"
		},
		{
			"bufferView":76,
			"componentType":5126,
			"count":24,
			"type":"VEC3"
		},
		{
			"bufferView":77,
			"componentType":5126,
			"count":24,
			"type":"VEC2"
		},
		{
			"bufferView":78,
			"componentType":5123,
			"count":36,
			"type":"SCALAR"
		},
		{
			"bufferView":79,
			"componentType":5126,
			"count":24,
			"max":[
				4.324699878692627,
				0.9999998807907104,
				4.917875289916992
			],
			"min":[
				-4.32471227645874,
				-0.9999998807907104,
				-4.917882442474365
			],
			"type":"VEC3"
		},
		{
			"bufferView":80,
			"componentType":5126,
			"count":24,
			"type":"VEC3"
		},
		{
			"bufferView":81,
			"componentType":5126,
			"count":24,
			"type":"VEC2"
		},
		{
			"bufferView":82,
			"componentType":5123,
			"count":36,
			"type":"SCALAR"
		},
		{
			"bufferView":83,
			"componentType":5126,
			"count":51,
			"max":[
				-0.8176407814025879,
				1.2004024982452393,
				1.7929046154022217
			],
			"min":[
				-5.193765640258789,
				-0.36302316188812256,
				-2.568880319595337
			],
			"type":"VEC3"
		},
		{
			"bufferView":84,
			"componentType":5126,
			"count":51,
			"type":"VEC3"
		},
		{
			"bufferView":85,
			"componentType":5126,
			"count":51,
			"type":"VEC2"
		},
		{
			"bufferView":86,
			"componentType":5126,
			"count":94,
			"max":[
				20.745014190673828,
				2.412900447845459,
				20.745010375976562
			],
			"min":[
				-20.745014190673828,
				-4.248856544494629,
				-20.745014190673828
			],
			"type":"VEC3"
		},
		{
			"bufferView":87,
			"componentType":5126,
			"count":94,
			"type":"VEC3"
		},
		{
			"bufferView":88,
			"componentType":5126,
			"count":94,
			"type":"VEC2"
		},
		{
			"bufferView":89,
			"componentType":5123,
			"count":372,
			"type":"SCALAR"
		},
		{
			"bufferView":90,
			"componentType":5126,
			"count":48,
			"max":[
				13.168280601501465,
				6.522959232330322,
				8.484848022460938
			],
			"min":[
				-13.168292999267578,
				-14.072980880737305,
				-8.484854698181152
			],
			"type":"VEC3"
		},
		{
			"bufferView":91,
			"componentType":5126,
			"count":48,
			"type":"VEC3"
		},
		{
			"bufferView":92,
			"componentType":5126,
			"count":48,
			"type":"VEC2"
		},
		{
			"bufferView":93,
			"componentType":5123,
			"count":132,
			"type":"SCALAR"
		},
		{
			"bufferView":94,
			"componentType":5126,
			"count":24,
			"max":[
				13.168280601501465,
				6.742456436157227,
				8.484848022460938
			],
			"min":[
				-13.168292999267578,
				-14.072980880737305,
				-8.484854698181152
			],
			"type":"VEC3"
		},
		{
			"bufferView":95,
			"componentType":5126,
			"count":24,
			"type":"VEC3"
		},
		{
			"bufferView":96,
			"componentType":5126,
			"count":24,
			"type":"VEC2"
		},
		{
			"bufferView":97,
			"componentType":5123,
			"count":36,
			"type":"SCALAR"
		},
		{
			"bufferView":98,
			"componentType":5126,
			"count":20,
			"max":[
				15.542196273803711,
				0.43362975120544434,
				8.484848022460938
			],
			"min":[
				-13.168292999267578,
				-14.072980880737305,
				-9.835213661193848
			],
			"type":"VEC3"
		},
		{
			"bufferView":99,
			"componentType":5126,
			"count":20,
			"type":"VEC3"
		},
		{
			"bufferView":100,
			"componentType":5126,
			"count":20,
			"type":"VEC2"
		},
		{
			"bufferView":101,
			"componentType":5123,
			"count":36,
			"type":"SCALAR"
		},
		{
			"bufferView":102,
			"componentType":5126,
			"count":24,
			"max":[
				-0.5403847694396973,
				7.58575439453125,
				26.635540008544922
			],
			"min":[
				-100.22624969482422,
				0.6174929141998291,
				-30.07384490966797
			],
			"type":"VEC3"
		},
		{
			"bufferView":103,
			"componentType":5126,
			"count":24,
			"type":"VEC3"
		},
		{
			"bufferView":104,
			"componentType":5126,
			"count":24,
			"type":"VEC2"
		},
		{
			"bufferView":105,
			"componentType":5126,
			"count":16,
			"max":[
				-2.286602020263672,
				8.358809471130371,
				12.268930435180664
			],
			"min":[
				-10.794377326965332,
				-1.2973368167877197,
				-9.835213661193848
			],
			"type":"VEC3"
		},
		{
			"bufferView":106,
			"componentType":5126,
			"count":16,
			"type":"VEC3"
		},
		{
			"bufferView":107,
			"componentType":5126,
			"count":16,
			"type":"VEC2"
		},
		{
			"bufferView":108,
			"componentType":5123,
			"count":30,
			"type":"SCALAR"
		},
		{
			"bufferView":109,
			"componentType":5126,
			"count":20,
			"max":[
				14.041259765625,
				8.358809471130371,
				12.268930435180664
			],
			"min":[
				5.877328872680664,
				-1.2973368167877197,
				-9.835213661193848
			],
			"type":"VEC3"
		},
		{
			"bufferView":110,
			"componentType":5126,
			"count":20,
			"type":"VEC3"
		},
		{
			"bufferView":111,
			"componentType":5126,
			"count":20,
			"type":"VEC2"
		},
		{
			"bufferView":112,
			"componentType":5123,
			"count":36,
			"type":"SCALAR"
		},
		{
			"bufferView":113,
			"componentType":5126,
			"count":24,
			"max":[
				1.8567988872528076,
				3.629406213760376,
				0.5382556915283203
			],
			"min":[
				-1.8567991256713867,
				-3.629405975341797,
				-0.5382575988769531
			],
			"type":"VEC3"
		},
		{
			"bufferView":114,
			"componentType":5126,
			"count":24,
			"type":"VEC3"
		},
		{
			"bufferView":115,
			"componentType":5126,
			"count":24,
			"type":"VEC2"
		},
		{
			"bufferView":116,
			"componentType":5126,
			"count":20,
			"max":[
				7.461439609527588,
				5.0114898681640625,
				8.484848022460938
			],
			"min":[
				-7.461452484130859,
				-9.086024284362793,
				-8.484854698181152
			],
			"type":"VEC3"
		},
		{
			"bufferView":117,
			"componentType":5126,
			"count":20,
			"type":"VEC3"
		},
		{
			"bufferView":118,
			"componentType":5126,
			"count":20,
			"type":"VEC2"
		},
		{
			"bufferView":119,
			"componentType":5123,
			"count":30,
			"type":"SCALAR"
		},
		{
			"bufferView":120,
			"componentType":5126,
			"count":16,
			"max":[
				7.461439609527588,
				-9.086024284362793,
				8.484848022460938
			],
			"min":[
				2.1834399700164795,
				-14.072980880737305,
				-8.484854698181152
			],
			"type":"VEC3"
		},
		{
			"bufferView":121,
			"componentType":5126,
			"count":16,
			"type":"VEC3"
		},
		{
			"bufferView":122,
			"componentType":5126,
			"count":16,
			"type":"VEC2"
		},
		{
			"bufferView":123,
			"componentType":5123,
			"count":36,
			"type":"SCALAR"
		},
		{
			"bufferView":124,
			"componentType":5126,
			"count":94,
			"max":[
				20.745014190673828,
				2.412900447845459,
				20.745010375976562
			],
			"min":[
				-20.745014190673828,
				-4.248856544494629,
				-20.745014190673828
			],
			"type":"VEC3"
		},
		{
			"bufferView":125,
			"componentType":5126,
			"count":94,
			"type":"VEC3"
		},
		{
			"bufferView":126,
			"componentType":5126,
			"count":94,
			"type":"VEC2"
		},
		{
			"bufferView":127,
			"componentType":5126,
			"count":24,
			"max":[
				13.168280601501465,
				6.742456436157227,
				8.484848022460938
			],
			"min":[
				-13.168292999267578,
				-14.072980880737305,
				-8.484854698181152
			],
			"type":"VEC3"
		},
		{
			"bufferView":128,
			"componentType":5126,
			"count":24,
			"type":"VEC3"
		},
		{
			"bufferView":129,
			"componentType":5126,
			"count":24,
			"type":"VEC2"
		},
		{
			"bufferView":130,
			"componentType":5123,
			"count":36,
			"type":"SCALAR"
		},
		{
			"bufferView":131,
			"componentType":5126,
			"count":24,
			"max":[
				4.324699878692627,
				0.9999998807907104,
				4.917875289916992
			],
			"min":[
				-4.32471227645874,
				-0.9999998807907104,
				-4.917882442474365
			],
			"type":"VEC3"
		},
		{
			"bufferView":132,
			"componentType":5126,
			"count":24,
			"type":"VEC3"
		},
		{
			"bufferView":133,
			"componentType":5126,
			"count":24,
			"type":"VEC2"
		},
		{
			"bufferView":134,
			"componentType":5126,
			"count":24,
			"max":[
				1.991323471069336,
				1.0129681825637817,
				3.946859121322632
			],
			"min":[
				-1.9913244247436523,
				-0.3417038917541504,
				-3.9468533992767334
			],
			"type":"VEC3"
		},
		{
			"bufferView":135,
			"componentType":5126,
			"count":24,
			"type":"VEC3"
		},
		{
			"bufferView":136,
			"componentType":5126,
			"count":24,
			"type":"VEC2"
		},
		{
			"bufferView":137,
			"componentType":5126,
			"count":24,
			"max":[
				1.991323471069336,
				0.5970041751861572,
				3.946859121322632
			],
			"min":[
				-1.9913244247436523,
				-0.3417038917541504,
				-3.9468533992767334
			],
			"type":"VEC3"
		},
		{
			"bufferView":138,
			"componentType":5126,
			"count":24,
			"type":"VEC3"
		},
		{
			"bufferView":139,
			"componentType":5126,
			"count":24,
			"type":"VEC2"
		},
		{
			"bufferView":140,
			"componentType":5126,
			"count":24,
			"max":[
				1.991323471069336,
				0.5970041751861572,
				3.946859121322632
			],
			"min":[
				-1.9913244247436523,
				-0.3417038917541504,
				-3.9468533992767334
			],
			"type":"VEC3"
		},
		{
			"bufferView":141,
			"componentType":5126,
			"count":24,
			"type":"VEC3"
		},
		{
			"bufferView":142,
			"componentType":5126,
			"count":24,
			"type":"VEC2"
		},
		{
			"bufferView":143,
			"componentType":5126,
			"count":24,
			"max":[
				-0.5725719928741455,
				-3.152601957321167,
				-20.49324607849121
			],
			"min":[
				-4.28617000579834,
				-10.41141414642334,
				-21.569759368896484
			],
			"type":"VEC3"
		},
		{
			"bufferView":144,
			"componentType":5126,
			"count":24,
			"type":"VEC3"
		},
		{
			"bufferView":145,
			"componentType":5126,
			"count":24,
			"type":"VEC2"
		},
		{
			"bufferView":146,
			"componentType":5126,
			"count":24,
			"max":[
				6.802095890045166,
				1.9965248107910156,
				4.382861614227295
			],
			"min":[
				-6.802097320556641,
				-1.8423843383789062,
				-4.382861614227295
			],
			"type":"VEC3"
		},
		{
			"bufferView":147,
			"componentType":5126,
			"count":24,
			"type":"VEC3"
		},
		{
			"bufferView":148,
			"componentType":5126,
			"count":24,
			"type":"VEC2"
		},
		{
			"bufferView":149,
			"componentType":5126,
			"count":24,
			"max":[
				6.802095890045166,
				1.9965248107910156,
				4.382861614227295
			],
			"min":[
				-6.802097320556641,
				-1.8423843383789062,
				-4.382861614227295
			],
			"type":"VEC3"
		},
		{
			"bufferView":150,
			"componentType":5126,
			"count":24,
			"type":"VEC3"
		},
		{
			"bufferView":151,
			"componentType":5126,
			"count":24,
			"type":"VEC2"
		},
		{
			"bufferView":152,
			"componentType":5126,
			"count":32,
			"max":[
				6.802095890045166,
				1.9965248107910156,
				4.382861614227295
			],
			"min":[
				-6.802097320556641,
				-1.8423843383789062,
				-12.33205509185791
			],
			"type":"VEC3"
		},
		{
			"bufferView":153,
			"componentType":5126,
			"count":32,
			"type":"VEC3"
		},
		{
			"bufferView":154,
			"componentType":5126,
			"count":32,
			"type":"VEC2"
		},
		{
			"bufferView":155,
			"componentType":5123,
			"count":60,
			"type":"SCALAR"
		},
		{
			"bufferView":156,
			"componentType":5126,
			"count":24,
			"max":[
				1.8567988872528076,
				3.629406213760376,
				0.5382556915283203
			],
			"min":[
				-1.8567991256713867,
				-3.629405975341797,
				-0.5382575988769531
			],
			"type":"VEC3"
		},
		{
			"bufferView":157,
			"componentType":5126,
			"count":24,
			"type":"VEC3"
		},
		{
			"bufferView":158,
			"componentType":5126,
			"count":24,
			"type":"VEC2"
		}
	],
	"bufferViews":[
		{
			"buffer":0,
			"byteLength":4380,
			"byteOffset":0,
			"target":34962
		},
		{
			"buffer":0,
			"byteLength":4380,
			"byteOffset":4380,
			"target":34962
		},
		{
			"buffer":0,
			"byteLength":2920,
			"byteOffset":8760,
			"target":34962
		},
		{
			"buffer":0,
			"byteLength":2328,
			"byteOffset":11680,
			"target":34963
		},
		{
			"buffer":0,
			"byteLength":168,
			"byteOffset":14008,
			"target":34962
		},
		{
			"buffer":0,
			"byteLength":168,
			"byteOffset":14176,
			"target":34962
		},
		{
			"buffer":0,
			"byteLength":112,
			"byteOffset":14344,
			"target":34962
		},
		{
			"buffer":0,
			"byteLength":72,
			"byteOffset":14456,
			"target":34963
		},
		{
			"buffer":0,
			"byteLength":168,
			"byteOffset":14528,
			"target":34962
		},
		{
			"buffer":0,
			"byteLength":168,
			"byteOffset":14696,
			"target":34962
		},
		{
			"buffer":0,
			"byteLength":112,
			"byteOffset":14864,
			"target":34962
		},
		{
			"buffer":0,
			"byteLength":168,
			"byteOffset":14976,
			"target":34962
		},
		{
			"buffer":0,
			"byteLength":168,
			"byteOffset":15144,
			"target":34962
		},
		{
			"buffer":0,
			"byteLength":112,
			"byteOffset":15312,
			"target":34962
		},
		{
			"buffer":0,
			"byteLength":168,
			"byteOffset":15424,
			"target":34962
		},
		{
			"buffer":0,
			"byteLength":168,
			"byteOffset":15592,
			"target":34962
		},
		{
			"buffer":0,
			"byteLength":112,
			"byteOffset":15760,
			"target":34962
		},
		{
			"buffer":0,
			"byteLength":168,
			"byteOffset":15872,
			"target":34962
		},
		{
			"buffer":0,
			"byteLength":168,
			"byteOffset":16040,
			"target":34962
		},
		{
			"buffer":0,
			"byteLength":112,
			"byteOffset":16208,
			"target":34962
		},
		{
			"buffer":0,
			"byteLength":168,
			"byteOffset":16320,
			"target":34962
		},
		{
			"buffer":0,
			"byteLength":168,
			"byteOffset":16488,
			"target":34962
		},
		{
			"buffer":0,
			"byteLength":112,
			"byteOffset":16656,
			"target":34962
		},
		{
			"buffer":0,
			"byteLength":168,
			"byteOffset":16768,
			"target":34962
		},
		{
			"buffer":0,
			"byteLength":168,
			"byteOffset":16936,
			"target":34962
		},
		{
			"buffer":0,
			"byteLength":112,
			"byteOffset":17104,
			"target":34962
		},
		{
			"buffer":0,
			"byteLength":168,
			"byteOffset":17216,
			"target":34962
		},
		{
			"buffer":0,
			"byteLength":168,
			"byteOffset":17384,
			"target":34962
		},
		{
			"buffer":0,
			"byteLength":112,
			"byteOffset":17552,
			"target":34962
		},
		{
			"buffer":0,
			"byteLength":168,
			"byteOffset":17664,
			"target":34962
		},
		{
			"buffer":0,
			"byteLength":168,
			"byteOffset":17832,
			"target":34962
		},
		{
			"buffer":0,
			"byteLength":112,
			"byteOffset":18000,
			"target":34962
		},
		{
			"buffer":0,
			"byteLength":168,
			"byteOffset":18112,
			"target":34962
		},
		{
			"buffer":0,
			"byteLength":168,
			"byteOffset":18280,
			"target":34962
		},
		{
			"buffer":0,
			"byteLength":112,
			"byteOffset":18448,
			"target":34962
		},
		{
			"buffer":0,
			"byteLength":168,
			"byteOffset":18560,
			"target":34962
		},
		{
			"buffer":0,
			"byteLength":168,
			"byteOffset":18728,
			"target":34962
		},
		{
			"buffer":0,
			"byteLength":112,
			"byteOffset":18896,
			"target":34962
		},
		{
			"buffer":0,
			"byteLength":168,
			"byteOffset":19008,
			"target":34962
		},
		{
			"buffer":0,
			"byteLength":168,
			"byteOffset":19176,
			"target":34962
		},
		{
			"buffer":0,
			"byteLength":112,
			"byteOffset":19344,
			"target":34962
		},
		{
			"buffer":0,
			"byteLength":181176,
			"byteOffset":19456,
			"target":34962
		},
		{
			"buffer":0,
			"byteLength":181176,
			"byteOffset":200632,
			"target":34962
		},
		{
			"buffer":0,
			"byteLength":120784,
			"byteOffset":381808,
			"target":34962
		},
		{
			"buffer":0,
			"byteLength":160104,
			"byteOffset":502592,
			"target":34963
		},
		{
			"buffer":0,
			"byteLength":288,
			"byteOffset":662696,
			"target":34962
		},
		{
			"buffer":0,
			"byteLength":288,
			"byteOffset":662984,
			"target":34962
		},
		{
			"buffer":0,
			"byteLength":192,
			"byteOffset":663272,
			"target":34962
		},
		{
			"buffer":0,
			"byteLength":96,
			"byteOffset":663464,
			"target":34962
		},
		{
			"buffer":0,
			"byteLength":192,
			"byteOffset":663560,
			"target":34962
		},
		{
			"buffer":0,
			"byteLength":72,
			"byteOffset":663752,
			"target":34963
		},
		{
			"buffer":0,
			"byteLength":612,
			"byteOffset":663824,
			"target":34962
		},
		{
			"buffer":0,
			"byteLength":612,
			"byteOffset":664436,
			"target":34962
		},
		{
			"buffer":0,
			"byteLength":408,
			"byteOffset":665048,
			"target":34962
		},
		{
			"buffer":0,
			"byteLength":480,
			"byteOffset":665456,
			"target":34963
		},
		{
			"buffer":0,
			"byteLength":288,
			"byteOffset":665936,
			"target":34962
		},
		{
			"buffer":0,
			"byteLength":288,
			"byteOffset":666224,
			"target":34962
		},
		{
			"buffer":0,
			"byteLength":192,
			"byteOffset":666512,
			"target":34962
		},
		{
			"buffer":0,
			"byteLength":72,
			"byteOffset":666704,
			"target":34963
		},
		{
			"buffer":0,
			"byteLength":288,
			"byteOffset":666776,
			"target":34962
		},
		{
			"buffer":0,
			"byteLength":288,
			"byteOffset":667064,
			"target":34962
		},
		{
			"buffer":0,
			"byteLength":192,
			"byteOffset":667352,
			"target":34962
		},
		{
			"buffer":0,
			"byteLength":72,
			"byteOffset":667544,
			"target":34963
		},
		{
			"buffer":0,
			"byteLength":192,
			"byteOffset":667616,
			"target":34962
		},
		{
			"buffer":0,
			"byteLength":192,
			"byteOffset":667808,
			"target":34962
		},
		{
			"buffer":0,
			"byteLength":128,
			"byteOffset":668000,
			"target":34962
		},
		{
			"buffer":0,
			"byteLength":72,
			"byteOffset":668128,
			"target":34963
		},
		{
			"buffer":0,
			"byteLength":288,
			"byteOffset":668200,
			"target":34962
		},
		{
			"buffer":0,
			"byteLength":288,
			"byteOffset":668488,
			"target":34962
		},
		{
			"buffer":0,
			"byteLength":192,
			"byteOffset":668776,
			"target":34962
		},
		{
			"buffer":0,
			"byteLength":72,
			"byteOffset":668968,
			"target":34963
		},
		{
			"buffer":0,
			"byteLength":504,
			"byteOffset":669040,
			"target":34962
		},
		{
			"buffer":0,
			"byteLength":504,
			"byteOffset":669544,
			"target":34962
		},
		{
			"buffer":0,
			"byteLength":336,
			"byteOffset":670048,
			"target":34962
		},
		{
			"buffer":0,
			"byteLength":192,
			"byteOffset":670384,
			"target":34963
		},
		{
			"buffer":0,
			"byteLength":288,
			"byteOffset":670576,
			"target":34962
		},
		{
			"buffer":0,
			"byteLength":288,
			"byteOffset":670864,
			"target":34962
		},
		{
			"buffer":0,
			"byteLength":192,
			"byteOffset":671152,
			"target":34962
		},
		{
			"buffer":0,
			"byteLength":72,
			"byteOffset":671344,
			"target":34963
		},
		{
			"buffer":0,
			"byteLength":288,
			"byteOffset":671416,
			"target":34962
		},
		{
			"buffer":0,
			"byteLength":288,
			"byteOffset":671704,
			"target":34962
		},
		{
			"buffer":0,
			"byteLength":192,
			"byteOffset":671992,
			"target":34962
		},
		{
			"buffer":0,
			"byteLength":72,
			"byteOffset":672184,
			"target":34963
		},
		{
			"buffer":0,
			"byteLength":612,
			"byteOffset":672256,
			"target":34962
		},
		{
			"buffer":0,
			"byteLength":612,
			"byteOffset":672868,
			"target":34962
		},
		{
			"buffer":0,
			"byteLength":408,
			"byteOffset":673480,
			"target":34962
		},
		{
			"buffer":0,
			"byteLength":1128,
			"byteOffset":673888,
			"target":34962
		},
		{
			"buffer":0,
			"byteLength":1128,
			"byteOffset":675016,
			"target":34962
		},
		{
			"buffer":0,
			"byteLength":752,
			"byteOffset":676144,
			"target":34962
		},
		{
			"buffer":0,
			"byteLength":744,
			"byteOffset":676896,
			"target":34963
		},
		{
			"buffer":0,
			"byteLength":576,
			"byteOffset":677640,
			"target":34962
		},
		{
			"buffer":0,
			"byteLength":576,
			"byteOffset":678216,
			"target":34962
		},
		{
			"buffer":0,
			"byteLength":384,
			"byteOffset":678792,
			"target":34962
		},
		{
			"buffer":0,
			"byteLength":264,
			"byteOffset":679176,
			"target":34963
		},
		{
			"buffer":0,
			"byteLength":288,
			"byteOffset":679440,
			"target":34962
		},
		{
			"buffer":0,
			"byteLength":288,
			"byteOffset":679728,
			"target":34962
		},
		{
			"buffer":0,
			"byteLength":192,
			"byteOffset":680016,
			"target":34962
		},
		{
			"buffer":0,
			"byteLength":72,
			"byteOffset":680208,
			"target":34963
		},
		{
			"buffer":0,
			"byteLength":240,
			"byteOffset":680280,
			"target":34962
		},
		{
			"buffer":0,
			"byteLength":240,
			"byteOffset":680520,
			"target":34962
		},
		{
			"buffer":0,
			"byteLength":160,
			"byteOffset":680760,
			"target":34962
		},
		{
			"buffer":0,
			"byteLength":72,
			"byteOffset":680920,
			"target":34963
		},
		{
			"buffer":0,
			"byteLength":288,
			"byteOffset":680992,
			"target":34962
		},
		{
			"buffer":0,
			"byteLength":288,
			"byteOffset":681280,
			"target":34962
		},
		{
			"buffer":0,
			"byteLength":192,
			"byteOffset":681568,
			"target":34962
		},
		{
			"buffer":0,
			"byteLength":192,
			"byteOffset":681760,
			"target":34962
		},
		{
			"buffer":0,
			"byteLength":192,
			"byteOffset":681952,
			"target":34962
		},
		{
			"buffer":0,
			"byteLength":128,
			"byteOffset":682144,
			"target":34962
		},
		{
			"buffer":0,
			"byteLength":60,
			"byteOffset":682272,
			"target":34963
		},
		{
			"buffer":0,
			"byteLength":240,
			"byteOffset":682332,
			"target":34962
		},
		{
			"buffer":0,
			"byteLength":240,
			"byteOffset":682572,
			"target":34962
		},
		{
			"buffer":0,
			"byteLength":160,
			"byteOffset":682812,
			"target":34962
		},
		{
			"buffer":0,
			"byteLength":72,
			"byteOffset":682972,
			"target":34963
		},
		{
			"buffer":0,
			"byteLength":288,
			"byteOffset":683044,
			"target":34962
		},
		{
			"buffer":0,
			"byteLength":288,
			"byteOffset":683332,
			"target":34962
		},
		{
			"buffer":0,
			"byteLength":192,
			"byteOffset":683620,
			"target":34962
		},
		{
			"buffer":0,
			"byteLength":240,
			"byteOffset":683812,
			"target":34962
		},
		{
			"buffer":0,
			"byteLength":240,
			"byteOffset":684052,
			"target":34962
		},
		{
			"buffer":0,
			"byteLength":160,
			"byteOffset":684292,
			"target":34962
		},
		{
			"buffer":0,
			"byteLength":60,
			"byteOffset":684452,
			"target":34963
		},
		{
			"buffer":0,
			"byteLength":192,
			"byteOffset":684512,
			"target":34962
		},
		{
			"buffer":0,
			"byteLength":192,
			"byteOffset":684704,
			"target":34962
		},
		{
			"buffer":0,
			"byteLength":128,
			"byteOffset":684896,
			"target":34962
		},
		{
			"buffer":0,
			"byteLength":72,
			"byteOffset":685024,
			"target":34963
		},
		{
			"buffer":0,
			"byteLength":1128,
			"byteOffset":685096,
			"target":34962
		},
		{
			"buffer":0,
			"byteLength":1128,
			"byteOffset":686224,
			"target":34962
		},
		{
			"buffer":0,
			"byteLength":752,
			"byteOffset":687352,
			"target":34962
		},
		{
			"buffer":0,
			"byteLength":288,
			"byteOffset":688104,
			"target":34962
		},
		{
			"buffer":0,
			"byteLength":288,
			"byteOffset":688392,
			"target":34962
		},
		{
			"buffer":0,
			"byteLength":192,
			"byteOffset":688680,
			"target":34962
		},
		{
			"buffer":0,
			"byteLength":72,
			"byteOffset":688872,
			"target":34963
		},
		{
			"buffer":0,
			"byteLength":288,
			"byteOffset":688944,
			"target":34962
		},
		{
			"buffer":0,
			"byteLength":288,
			"byteOffset":689232,
			"target":34962
		},
		{
			"buffer":0,
			"byteLength":192,
			"byteOffset":689520,
			"target":34962
		},
		{
			"buffer":0,
			"byteLength":288,
			"byteOffset":689712,
			"target":34962
		},
		{
			"buffer":0,
			"byteLength":288,
			"byteOffset":690000,
			"target":34962
		},
		{
			"buffer":0,
			"byteLength":192,
			"byteOffset":690288,
			"target":34962
		},
		{
			"buffer":0,
			"byteLength":288,
			"byteOffset":690480,
			"target":34962
		},
		{
			"buffer":0,
			"byteLength":288,
			"byteOffset":690768,
			"target":34962
		},
		{
			"buffer":0,
			"byteLength":192,
			"byteOffset":691056,
			"target":34962
		},
		{
			"buffer":0,
			"byteLength":288,
			"byteOffset":691248,
			"target":34962
		},
		{
			"buffer":0,
			"byteLength":288,
			"byteOffset":691536,
			"target":34962
		},
		{
			"buffer":0,
			"byteLength":192,
			"byteOffset":691824,
			"target":34962
		},
		{
			"buffer":0,
			"byteLength":288,
			"byteOffset":692016,
			"target":34962
		},
		{
			"buffer":0,
			"byteLength":288,
			"byteOffset":692304,
			"target":34962
		},
		{
			"buffer":0,
			"byteLength":192,
			"byteOffset":692592,
			"target":34962
		},
		{
			"buffer":0,
			"byteLength":288,
			"byteOffset":692784,
			"target":34962
		},
		{
			"buffer":0,
			"byteLength":288,
			"byteOffset":693072,
			"target":34962
		},
		{
			"buffer":0,
			"byteLength":192,
			"byteOffset":693360,
			"target":34962
		},
		{
			"buffer":0,
			"byteLength":288,
			"byteOffset":693552,
			"target":34962
		},
		{
			"buffer":0,
			"byteLength":288,
			"byteOffset":693840,
			"target":34962
		},
		{
			"buffer":0,
			"byteLength":192,
			"byteOffset":694128,
			"target":34962
		},
		{
			"buffer":0,
			"byteLength":384,
			"byteOffset":694320,
			"target":34962
		},
		{
			"buffer":0,
			"byteLength":384,
			"byteOffset":694704,
			"target":34962
		},
		{
			"buffer":0,
			"byteLength":256,
			"byteOffset":695088,
			"target":34962
		},
		{
			"buffer":0,
			"byteLength":120,
			"byteOffset":695344,
			"target":34963
		},
		{
			"buffer":0,
			"byteLength":288,
			"byteOffset":695464,
			"target":34962
		},
		{
			"buffer":0,
			"byteLength":288,
			"byteOffset":695752,
			"target":34962
		},
		{
			"buffer":0,
			"byteLength":192,
			"byteOffset":696040,
			"target":34962
		}
	],
	"samplers":[
		{
			"magFilter":9729,
			"minFilter":9987
		}
	],
	"buffers":[
		{
			"byteLength":696232,
			"uri":"level_1.bin"
		}
	]
}
