{
	"asset":{
		"generator":"Khronos glTF Blender I/O v5.0.21",
		"version":"2.0"
	},
	"scene":0,
	"scenes":[
		{
			"name":"Scene",
			"nodes":[
				0
			]
		}
	],
	"nodes":[
		{
			"mesh":0,
			"name":"body",
			"scale":[
				0.4599933922290802,
				0.4599933922290802,
				0.4599933922290802
			],
			"translation":[
				0,
				0.04071899503469467,
				0
			]
		}
	],
	"materials":[
		{
			"doubleSided":true,
			"emissiveFactor":[
				1,
				1,
				1
			],
			"emissiveTexture":{
				"index":0
			},
			"name":"Material.001",
			"pbrMetallicRoughness":{
				"baseColorFactor":[
					0,
					0,
					0,
					1
				]
			}
		}
	],
	"meshes":[
		{
			"name":"body",
			"primitives":[
				{
					"attributes":{
						"POSITION":0,
						"NORMAL":1,
						"TEXCOORD_0":2
					},
					"indices":3,
					"material":0
				}
			]
		}
	],
	"textures":[
		{
			"sampler":0,
			"source":0
		}
	],
	"images":[
		{
			"mimeType":"image/jpeg",
			"name":"1666967910.exoticd_fbloarwaqameuxt",
			"uri":"1666967910.exoticd_fbloarwaqameuxt.jpg"
		}
	],
	"accessors":[
		{
			"bufferView":0,
			"componentType":5126,
			"count":1075,
			"max":[
				3.6923482418060303,
				6.580047130584717,
				1.7117044925689697
			],
			"min":[
				-3.6923482418060303,
				-0.0582452267408371,
				-1.4544408321380615
			],
			"type":"VEC3"
		},
		{
			"bufferView":1,
			"componentType":5126,
			"count":1075,
			"type":"VEC3"
		},
		{
			"bufferView":2,
			"componentType":5126,
			"count":1075,
			"type":"VEC2"
		},
		{
			"bufferView":3,
			"componentType":5123,
			"count":4578,
			"type":"SCALAR"
		}
	],
	"bufferViews":[
		{
			"buffer":0,
			"byteLength":12900,
			"byteOffset":0,
			"target":34962
		},
		{
			"buffer":0,
			"byteLength":12900,
			"byteOffset":12900,
			"target":34962
		},
		{
			"buffer":0,
			"byteLength":8600,
			"byteOffset":25800,
			"target":34962
		},
		{
			"buffer":0,
			"byteLength":9156,
			"byteOffset":34400,
			"target":34963
		}
	],
	"samplers":[
		{
			"magFilter":9729,
			"minFilter":9987
		}
	],
	"buffers":[
		{
			"byteLength":43556,
			"uri":"boar_pig.bin"
		}
	]
}
