{
    "asset" : {
        "generator" : "Khronos glTF Blender I/O v1.6.16",
        "version" : "2.0"
    },
    "scene" : 0,
    "scenes" : [
        {
            "name" : "Scene",
            "nodes" : [
                3
            ]
        }
    ],
    "nodes" : [
        {
            "name" : "Bone.007",
            "rotation" : [
                -0.0025252511259168386,
                0.707102358341217,
                0.002525381976738572,
                0.7071022987365723
            ],
            "scale" : [
                1,
                1.0000001192092896,
                1.0000001192092896
            ],
            "translation" : [
                0.005966872442513704,
                -0.32817670702934265,
                -4.409343290490142e-08
            ]
        },
        {
            "name" : "Bone.008",
            "rotation" : [
                0.04238097742199898,
                0.6873148083686829,
                0.7085971236228943,
                0.15392330288887024
            ],
            "scale" : [
                1.00001060962677,
                1,
                1
            ],
            "translation" : [
                0.005966871976852417,
                -0.32817667722702026,
                -4.294429345463868e-08
            ]
        },
        {
            "mesh" : 0,
            "name" : "body",
            "skin" : 0
        },
        {
            "children" : [
                2,
                0,
                1
            ],
            "name" : "Armature",
            "translation" : [
                0,
                2.313323497772217,
                0
            ]
        }
    ],
    "materials" : [
        {
            "doubleSided" : true,
            "name" : "Material",
            "pbrMetallicRoughness" : {
                "baseColorTexture" : {
                    "index" : 0
                },
                "metallicFactor" : 0,
                "roughnessFactor" : 0.5
            }
        },
        {
            "doubleSided" : true,
            "name" : "Material.001",
            "pbrMetallicRoughness" : {
                "baseColorTexture" : {
                    "index" : 1
                },
                "metallicFactor" : 0,
                "roughnessFactor" : 0.5
            }
        }
    ],
    "meshes" : [
        {
            "name" : "Cube",
            "primitives" : [
                {
                    "attributes" : {
                        "POSITION" : 0,
                        "NORMAL" : 1,
                        "TEXCOORD_0" : 2,
                        "JOINTS_0" : 3,
                        "WEIGHTS_0" : 4
                    },
                    "indices" : 5,
                    "material" : 0
                },
                {
                    "attributes" : {
                        "POSITION" : 6,
                        "NORMAL" : 7,
                        "TEXCOORD_0" : 8,
                        "JOINTS_0" : 9,
                        "WEIGHTS_0" : 10
                    },
                    "indices" : 11,
                    "material" : 1
                }
            ]
        }
    ],
    "textures" : [
        {
            "sampler" : 0,
            "source" : 0
        },
        {
            "sampler" : 0,
            "source" : 1
        }
    ],
    "images" : [
        {
            "bufferView" : 6,
            "mimeType" : "image/png",
            "name" : "FMuZqW9aMAEk0bt"
        },
        {
            "bufferView" : 13,
            "mimeType" : "image/jpeg",
            "name" : "download (27)"
        }
    ],
    "skins" : [
        {
            "inverseBindMatrices" : 12,
            "joints" : [
                0,
                1
            ],
            "name" : "Armature"
        }
    ],
    "accessors" : [
        {
            "bufferView" : 0,
            "componentType" : 5126,
            "count" : 197,
            "max" : [
                2.204927444458008,
                4.517282485961914,
                0.4464791417121887
            ],
            "min" : [
                -2.204927444458008,
                0.02168715000152588,
                -0.23637840151786804
            ],
            "type" : "VEC3"
        },
        {
            "bufferView" : 1,
            "componentType" : 5126,
            "count" : 197,
            "type" : "VEC3"
        },
        {
            "bufferView" : 2,
            "componentType" : 5126,
            "count" : 197,
            "type" : "VEC2"
        },
        {
            "bufferView" : 3,
            "componentType" : 5121,
            "count" : 197,
            "type" : "VEC4"
        },
        {
            "bufferView" : 4,
            "componentType" : 5126,
            "count" : 197,
            "type" : "VEC4"
        },
        {
            "bufferView" : 5,
            "componentType" : 5123,
            "count" : 1032,
            "type" : "SCALAR"
        },
        {
            "bufferView" : 7,
            "componentType" : 5126,
            "count" : 153,
            "max" : [
                1.0446292161941528,
                3.895730495452881,
                0.4155765175819397
            ],
            "min" : [
                -1.0446292161941528,
                1.0498378276824951,
                -0.31396496295928955
            ],
            "type" : "VEC3"
        },
        {
            "bufferView" : 8,
            "componentType" : 5126,
            "count" : 153,
            "type" : "VEC3"
        },
        {
            "bufferView" : 9,
            "componentType" : 5126,
            "count" : 153,
            "type" : "VEC2"
        },
        {
            "bufferView" : 10,
            "componentType" : 5121,
            "count" : 153,
            "type" : "VEC4"
        },
        {
            "bufferView" : 11,
            "componentType" : 5126,
            "count" : 153,
            "type" : "VEC4"
        },
        {
            "bufferView" : 12,
            "componentType" : 5123,
            "count" : 816,
            "type" : "SCALAR"
        },
        {
            "bufferView" : 14,
            "componentType" : 5126,
            "count" : 2,
            "type" : "MAT4"
        }
    ],
    "bufferViews" : [
        {
            "buffer" : 0,
            "byteLength" : 2364,
            "byteOffset" : 0
        },
        {
            "buffer" : 0,
            "byteLength" : 2364,
            "byteOffset" : 2364
        },
        {
            "buffer" : 0,
            "byteLength" : 1576,
            "byteOffset" : 4728
        },
        {
            "buffer" : 0,
            "byteLength" : 788,
            "byteOffset" : 6304
        },
        {
            "buffer" : 0,
            "byteLength" : 3152,
            "byteOffset" : 7092
        },
        {
            "buffer" : 0,
            "byteLength" : 2064,
            "byteOffset" : 10244
        },
        {
            "buffer" : 0,
            "byteLength" : 150764,
            "byteOffset" : 12308
        },
        {
            "buffer" : 0,
            "byteLength" : 1836,
            "byteOffset" : 163072
        },
        {
            "buffer" : 0,
            "byteLength" : 1836,
            "byteOffset" : 164908
        },
        {
            "buffer" : 0,
            "byteLength" : 1224,
            "byteOffset" : 166744
        },
        {
            "buffer" : 0,
            "byteLength" : 612,
            "byteOffset" : 167968
        },
        {
            "buffer" : 0,
            "byteLength" : 2448,
            "byteOffset" : 168580
        },
        {
            "buffer" : 0,
            "byteLength" : 1632,
            "byteOffset" : 171028
        },
        {
            "buffer" : 0,
            "byteLength" : 39654,
            "byteOffset" : 172660
        },
        {
            "buffer" : 0,
            "byteLength" : 128,
            "byteOffset" : 212316
        }
    ],
    "samplers" : [
        {
            "magFilter" : 9729,
            "minFilter" : 9987
        }
    ],
    "buffers" : [
        {
            "byteLength" : 212444,
            "uri" : "data:application/octet-stream;base64,"
        }
    ]
}
