{
    "asset" : {
        "generator" : "Khronos glTF Blender I/O v1.6.16",
        "version" : "2.0"
    },
    "scene" : 0,
    "scenes" : [
        {
            "extras" : {
                "glTF2ExportSettings" : {
                    "export_extras" : 1,
                    "export_format" : "GLTF_EMBEDDED",
                    "use_selection" : 0
                }
            },
            "name" : "Scene",
            "nodes" : [
                0,
                1,
                2,
                3,
                4,
                5,
                6,
                7,
                8,
                9,
                10
            ]
        }
    ],
    "nodes" : [
        {
            "mesh" : 0,
            "name" : "Cube",
            "translation" : [
                -3.1340246200561523,
                22.085351943969727,
                -37.52320098876953
            ]
        },
        {
            "mesh" : 1,
            "name" : "Cube.004",
            "scale" : [
                3.734217882156372,
                9.369878768920898,
                3.734217882156372
            ],
            "translation" : [
                -16.437294006347656,
                1.826159954071045,
                -22.770816802978516
            ]
        },
        {
            "mesh" : 2,
            "name" : "Cube.007",
            "scale" : [
                1.0980719327926636,
                1.0980719327926636,
                1.0980719327926636
            ],
            "translation" : [
                33.83539962768555,
                -0.03519582748413086,
                13.403030395507812
            ]
        },
        {
            "mesh" : 3,
            "name" : "Cube.009",
            "scale" : [
                3.734217882156372,
                9.369878768920898,
                3.734217882156372
            ],
            "translation" : [
                22.73902130126953,
                8.654848098754883,
                -34.516212463378906
            ]
        },
        {
            "mesh" : 4,
            "name" : "Cube.003",
            "scale" : [
                1.0980719327926636,
                1.0980719327926636,
                1.0980719327926636
            ],
            "translation" : [
                -2.0313191413879395,
                15.232342720031738,
                -36.51222229003906
            ]
        },
        {
            "mesh" : 5,
            "name" : "Cube.005",
            "scale" : [
                1.0980719327926636,
                1.0980719327926636,
                1.0980719327926636
            ],
            "translation" : [
                10.969888687133789,
                14.455894470214844,
                -36.362552642822266
            ]
        },
        {
            "mesh" : 6,
            "name" : "Cube.006",
            "scale" : [
                1.0980719327926636,
                1.0980719327926636,
                1.0980719327926636
            ],
            "translation" : [
                5.119513034820557,
                -0.8089840412139893,
                1.2465755939483643
            ]
        },
        {
            "mesh" : 7,
            "name" : "Cube.008",
            "scale" : [
                1.0980719327926636,
                1.0980719327926636,
                1.0980719327926636
            ],
            "translation" : [
                -18.213977813720703,
                5.518794059753418,
                -11.254264831542969
            ]
        },
        {
            "mesh" : 8,
            "name" : "Cube.010",
            "scale" : [
                1.0980719327926636,
                1.0980719327926636,
                1.0980719327926636
            ],
            "translation" : [
                -11.437420845031738,
                1.4812953472137451,
                -1.64397132396698
            ]
        },
        {
            "mesh" : 9,
            "name" : "Cube.018",
            "scale" : [
                3.734217882156372,
                9.369878768920898,
                3.734217882156372
            ],
            "translation" : [
                -10.619635581970215,
                8.474006652832031,
                -35.54054641723633
            ]
        },
        {
            "mesh" : 10,
            "name" : "Cylinder",
            "scale" : [
                1.6120465993881226,
                1.6120465993881226,
                1.6120465993881226
            ],
            "translation" : [
                -1.1819629669189453,
                -2.4137892723083496,
                -13.331703186035156
            ]
        }
    ],
    "materials" : [
        {
            "doubleSided" : true,
            "emissiveFactor" : [
                1,
                1,
                1
            ],
            "emissiveTexture" : {
                "index" : 0
            },
            "name" : "Material",
            "pbrMetallicRoughness" : {}
        },
        {
            "doubleSided" : true,
            "emissiveFactor" : [
                1,
                1,
                1
            ],
            "emissiveTexture" : {
                "index" : 1
            },
            "name" : "Material.001",
            "pbrMetallicRoughness" : {}
        }
    ],
    "meshes" : [
        {
            "extras" : {
                "prop" : 1
            },
            "name" : "Cube",
            "primitives" : [
                {
                    "attributes" : {
                        "POSITION" : 0,
                        "NORMAL" : 1,
                        "TEXCOORD_0" : 2
                    },
                    "indices" : 3,
                    "material" : 0
                }
            ]
        },
        {
            "name" : "Cube.004",
            "primitives" : [
                {
                    "attributes" : {
                        "POSITION" : 4,
                        "NORMAL" : 5,
                        "TEXCOORD_0" : 6
                    },
                    "indices" : 7,
                    "material" : 0
                }
            ]
        },
        {
            "name" : "Cube.007",
            "primitives" : [
                {
                    "attributes" : {
                        "POSITION" : 8,
                        "NORMAL" : 9,
                        "TEXCOORD_0" : 10
                    },
                    "indices" : 11,
                    "material" : 0
                }
            ]
        },
        {
            "name" : "Cube.009",
            "primitives" : [
                {
                    "attributes" : {
                        "POSITION" : 12,
                        "NORMAL" : 13,
                        "TEXCOORD_0" : 14
                    },
                    "indices" : 11,
                    "material" : 0
                }
            ]
        },
        {
            "name" : "Cube.012",
            "primitives" : [
                {
                    "attributes" : {
                        "POSITION" : 15,
                        "NORMAL" : 16,
                        "TEXCOORD_0" : 17
                    },
                    "indices" : 11,
                    "material" : 0
                }
            ]
        },
        {
            "name" : "Cube.013",
            "primitives" : [
                {
                    "attributes" : {
                        "POSITION" : 18,
                        "NORMAL" : 19,
                        "TEXCOORD_0" : 20
                    },
                    "indices" : 11,
                    "material" : 0
                }
            ]
        },
        {
            "name" : "Cube.014",
            "primitives" : [
                {
                    "attributes" : {
                        "POSITION" : 21,
                        "NORMAL" : 22,
                        "TEXCOORD_0" : 23
                    },
                    "indices" : 24,
                    "material" : 1
                }
            ]
        },
        {
            "name" : "Cube.015",
            "primitives" : [
                {
                    "attributes" : {
                        "POSITION" : 25,
                        "NORMAL" : 26,
                        "TEXCOORD_0" : 27
                    },
                    "indices" : 11,
                    "material" : 0
                }
            ]
        },
        {
            "name" : "Cube.016",
            "primitives" : [
                {
                    "attributes" : {
                        "POSITION" : 28,
                        "NORMAL" : 29,
                        "TEXCOORD_0" : 30
                    },
                    "indices" : 11,
                    "material" : 0
                }
            ]
        },
        {
            "name" : "Cube.018",
            "primitives" : [
                {
                    "attributes" : {
                        "POSITION" : 31,
                        "NORMAL" : 32,
                        "TEXCOORD_0" : 33
                    },
                    "indices" : 7,
                    "material" : 0
                }
            ]
        },
        {
            "name" : "Cylinder",
            "primitives" : [
                {
                    "attributes" : {
                        "POSITION" : 34,
                        "NORMAL" : 35,
                        "TEXCOORD_0" : 36
                    },
                    "indices" : 37,
                    "material" : 1
                }
            ]
        }
    ],
    "textures" : [
        {
            "sampler" : 0,
            "source" : 0
        },
        {
            "sampler" : 0,
            "source" : 1
        }
    ],
    "images" : [
        {
            "bufferView" : 4,
            "mimeType" : "image/jpeg",
            "name" : "FdGikjBaAAMsIWh"
        },
        {
            "bufferView" : 26,
            "mimeType" : "image/jpeg",
            "name" : "IMG_8741_cSunHaloEdback2048"
        }
    ],
    "accessors" : [
        {
            "bufferView" : 0,
            "componentType" : 5126,
            "count" : 365,
            "max" : [
                1.3856873512268066,
                5.799676895141602,
                1.9180378913879395
            ],
            "min" : [
                -1.3856815099716187,
                -1.3075637817382812,
                -3.147723913192749
            ],
            "type" : "VEC3"
        },
        {
            "bufferView" : 1,
            "componentType" : 5126,
            "count" : 365,
            "type" : "VEC3"
        },
        {
            "bufferView" : 2,
            "componentType" : 5126,
            "count" : 365,
            "type" : "VEC2"
        },
        {
            "bufferView" : 3,
            "componentType" : 5123,
            "count" : 1164,
            "type" : "SCALAR"
        },
        {
            "bufferView" : 5,
            "componentType" : 5126,
            "count" : 51,
            "max" : [
                3.13867449760437,
                0.946384072303772,
                3.128389835357666
            ],
            "min" : [
                -3.138672113418579,
                -0.10249954462051392,
                -3.1283864974975586
            ],
            "type" : "VEC3"
        },
        {
            "bufferView" : 6,
            "componentType" : 5126,
            "count" : 51,
            "type" : "VEC3"
        },
        {
            "bufferView" : 7,
            "componentType" : 5126,
            "count" : 51,
            "type" : "VEC2"
        },
        {
            "bufferView" : 8,
            "componentType" : 5123,
            "count" : 240,
            "type" : "SCALAR"
        },
        {
            "bufferView" : 9,
            "componentType" : 5126,
            "count" : 24,
            "max" : [
                2.654801845550537,
                5.730880260467529,
                -17.18256950378418
            ],
            "min" : [
                -22.147560119628906,
                3.7308802604675293,
                -27.018327713012695
            ],
            "type" : "VEC3"
        },
        {
            "bufferView" : 10,
            "componentType" : 5126,
            "count" : 24,
            "type" : "VEC3"
        },
        {
            "bufferView" : 11,
            "componentType" : 5126,
            "count" : 24,
            "type" : "VEC2"
        },
        {
            "bufferView" : 12,
            "componentType" : 5123,
            "count" : 36,
            "type" : "SCALAR"
        },
        {
            "bufferView" : 13,
            "componentType" : 5126,
            "count" : 24,
            "max" : [
                1.991323471069336,
                1.0129681825637817,
                3.946859121322632
            ],
            "min" : [
                -1.9913244247436523,
                -0.3417038917541504,
                -3.9468533992767334
            ],
            "type" : "VEC3"
        },
        {
            "bufferView" : 14,
            "componentType" : 5126,
            "count" : 24,
            "type" : "VEC3"
        },
        {
            "bufferView" : 15,
            "componentType" : 5126,
            "count" : 24,
            "type" : "VEC2"
        },
        {
            "bufferView" : 16,
            "componentType" : 5126,
            "count" : 24,
            "max" : [
                7.461439609527588,
                5.0114898681640625,
                8.484848022460938
            ],
            "min" : [
                -7.461452484130859,
                -14.072980880737305,
                -8.484854698181152
            ],
            "type" : "VEC3"
        },
        {
            "bufferView" : 17,
            "componentType" : 5126,
            "count" : 24,
            "type" : "VEC3"
        },
        {
            "bufferView" : 18,
            "componentType" : 5126,
            "count" : 24,
            "type" : "VEC2"
        },
        {
            "bufferView" : 19,
            "componentType" : 5126,
            "count" : 24,
            "max" : [
                4.324699878692627,
                0.9999998807907104,
                4.917875289916992
            ],
            "min" : [
                -4.32471227645874,
                -0.9999998807907104,
                -4.917882442474365
            ],
            "type" : "VEC3"
        },
        {
            "bufferView" : 20,
            "componentType" : 5126,
            "count" : 24,
            "type" : "VEC3"
        },
        {
            "bufferView" : 21,
            "componentType" : 5126,
            "count" : 24,
            "type" : "VEC2"
        },
        {
            "bufferView" : 22,
            "componentType" : 5126,
            "count" : 64,
            "max" : [
                10.43991470336914,
                0.9999998807907104,
                6.723372459411621
            ],
            "min" : [
                -10.439926147460938,
                -0.9999998807907104,
                -6.695117950439453
            ],
            "type" : "VEC3"
        },
        {
            "bufferView" : 23,
            "componentType" : 5126,
            "count" : 64,
            "type" : "VEC3"
        },
        {
            "bufferView" : 24,
            "componentType" : 5126,
            "count" : 64,
            "type" : "VEC2"
        },
        {
            "bufferView" : 25,
            "componentType" : 5123,
            "count" : 96,
            "type" : "SCALAR"
        },
        {
            "bufferView" : 27,
            "componentType" : 5126,
            "count" : 24,
            "max" : [
                4.324699878692627,
                0.9999998807907104,
                4.917875289916992
            ],
            "min" : [
                -4.32471227645874,
                -0.9999998807907104,
                -4.917882442474365
            ],
            "type" : "VEC3"
        },
        {
            "bufferView" : 28,
            "componentType" : 5126,
            "count" : 24,
            "type" : "VEC3"
        },
        {
            "bufferView" : 29,
            "componentType" : 5126,
            "count" : 24,
            "type" : "VEC2"
        },
        {
            "bufferView" : 30,
            "componentType" : 5126,
            "count" : 24,
            "max" : [
                4.324699878692627,
                0.9999998807907104,
                4.917875289916992
            ],
            "min" : [
                -4.32471227645874,
                -0.9999998807907104,
                -4.917882442474365
            ],
            "type" : "VEC3"
        },
        {
            "bufferView" : 31,
            "componentType" : 5126,
            "count" : 24,
            "type" : "VEC3"
        },
        {
            "bufferView" : 32,
            "componentType" : 5126,
            "count" : 24,
            "type" : "VEC2"
        },
        {
            "bufferView" : 33,
            "componentType" : 5126,
            "count" : 51,
            "max" : [
                -0.8176407814025879,
                1.2004024982452393,
                1.7929046154022217
            ],
            "min" : [
                -5.193765640258789,
                -0.36302316188812256,
                -2.568880319595337
            ],
            "type" : "VEC3"
        },
        {
            "bufferView" : 34,
            "componentType" : 5126,
            "count" : 51,
            "type" : "VEC3"
        },
        {
            "bufferView" : 35,
            "componentType" : 5126,
            "count" : 51,
            "type" : "VEC2"
        },
        {
            "bufferView" : 36,
            "componentType" : 5126,
            "count" : 192,
            "max" : [
                20.745014190673828,
                2.412900447845459,
                20.745010375976562
            ],
            "min" : [
                -20.745014190673828,
                -4.248856544494629,
                -20.745014190673828
            ],
            "type" : "VEC3"
        },
        {
            "bufferView" : 37,
            "componentType" : 5126,
            "count" : 192,
            "type" : "VEC3"
        },
        {
            "bufferView" : 38,
            "componentType" : 5126,
            "count" : 192,
            "type" : "VEC2"
        },
        {
            "bufferView" : 39,
            "componentType" : 5123,
            "count" : 372,
            "type" : "SCALAR"
        }
    ],
    "bufferViews" : [
        {
            "buffer" : 0,
            "byteLength" : 4380,
            "byteOffset" : 0
        },
        {
            "buffer" : 0,
            "byteLength" : 4380,
            "byteOffset" : 4380
        },
        {
            "buffer" : 0,
            "byteLength" : 2920,
            "byteOffset" : 8760
        },
        {
            "buffer" : 0,
            "byteLength" : 2328,
            "byteOffset" : 11680
        },
        {
            "buffer" : 0,
            "byteLength" : 47187,
            "byteOffset" : 14008
        },
        {
            "buffer" : 0,
            "byteLength" : 612,
            "byteOffset" : 61196
        },
        {
            "buffer" : 0,
            "byteLength" : 612,
            "byteOffset" : 61808
        },
        {
            "buffer" : 0,
            "byteLength" : 408,
            "byteOffset" : 62420
        },
        {
            "buffer" : 0,
            "byteLength" : 480,
            "byteOffset" : 62828
        },
        {
            "buffer" : 0,
            "byteLength" : 288,
            "byteOffset" : 63308
        },
        {
            "buffer" : 0,
            "byteLength" : 288,
            "byteOffset" : 63596
        },
        {
            "buffer" : 0,
            "byteLength" : 192,
            "byteOffset" : 63884
        },
        {
            "buffer" : 0,
            "byteLength" : 72,
            "byteOffset" : 64076
        },
        {
            "buffer" : 0,
            "byteLength" : 288,
            "byteOffset" : 64148
        },
        {
            "buffer" : 0,
            "byteLength" : 288,
            "byteOffset" : 64436
        },
        {
            "buffer" : 0,
            "byteLength" : 192,
            "byteOffset" : 64724
        },
        {
            "buffer" : 0,
            "byteLength" : 288,
            "byteOffset" : 64916
        },
        {
            "buffer" : 0,
            "byteLength" : 288,
            "byteOffset" : 65204
        },
        {
            "buffer" : 0,
            "byteLength" : 192,
            "byteOffset" : 65492
        },
        {
            "buffer" : 0,
            "byteLength" : 288,
            "byteOffset" : 65684
        },
        {
            "buffer" : 0,
            "byteLength" : 288,
            "byteOffset" : 65972
        },
        {
            "buffer" : 0,
            "byteLength" : 192,
            "byteOffset" : 66260
        },
        {
            "buffer" : 0,
            "byteLength" : 768,
            "byteOffset" : 66452
        },
        {
            "buffer" : 0,
            "byteLength" : 768,
            "byteOffset" : 67220
        },
        {
            "buffer" : 0,
            "byteLength" : 512,
            "byteOffset" : 67988
        },
        {
            "buffer" : 0,
            "byteLength" : 192,
            "byteOffset" : 68500
        },
        {
            "buffer" : 0,
            "byteLength" : 1030715,
            "byteOffset" : 68692
        },
        {
            "buffer" : 0,
            "byteLength" : 288,
            "byteOffset" : 1099408
        },
        {
            "buffer" : 0,
            "byteLength" : 288,
            "byteOffset" : 1099696
        },
        {
            "buffer" : 0,
            "byteLength" : 192,
            "byteOffset" : 1099984
        },
        {
            "buffer" : 0,
            "byteLength" : 288,
            "byteOffset" : 1100176
        },
        {
            "buffer" : 0,
            "byteLength" : 288,
            "byteOffset" : 1100464
        },
        {
            "buffer" : 0,
            "byteLength" : 192,
            "byteOffset" : 1100752
        },
        {
            "buffer" : 0,
            "byteLength" : 612,
            "byteOffset" : 1100944
        },
        {
            "buffer" : 0,
            "byteLength" : 612,
            "byteOffset" : 1101556
        },
        {
            "buffer" : 0,
            "byteLength" : 408,
            "byteOffset" : 1102168
        },
        {
            "buffer" : 0,
            "byteLength" : 2304,
            "byteOffset" : 1102576
        },
        {
            "buffer" : 0,
            "byteLength" : 2304,
            "byteOffset" : 1104880
        },
        {
            "buffer" : 0,
            "byteLength" : 1536,
            "byteOffset" : 1107184
        },
        {
            "buffer" : 0,
            "byteLength" : 744,
            "byteOffset" : 1108720
        }
    ],
    "samplers" : [
        {
            "magFilter" : 9729,
            "minFilter" : 9987
        }
    ],
    "buffers" : [
        {
            "byteLength" : 1109464,
            "uri" : "data:application/octet-stream;base64,"
        }
    ]
}
