{
	"asset":{
		"generator":"Khronos glTF Blender I/O v5.0.21",
		"version":"2.0"
	},
	"scene":0,
	"scenes":[
		{
			"name":"Scene",
			"nodes":[
				0
			]
		}
	],
	"nodes":[
		{
			"mesh":0,
			"name":"body",
			"scale":[
				0.6049873232841492,
				0.6049873232841492,
				0.6049873232841492
			],
			"translation":[
				0,
				0.04071899503469467,
				0
			]
		}
	],
	"materials":[
		{
			"doubleSided":true,
			"emissiveFactor":[
				1,
				1,
				1
			],
			"emissiveTexture":{
				"index":0
			},
			"name":"Material.001",
			"pbrMetallicRoughness":{
				"baseColorFactor":[
					0,
					0,
					0,
					1
				]
			}
		}
	],
	"meshes":[
		{
			"name":"body",
			"primitives":[
				{
					"attributes":{
						"POSITION":0,
						"NORMAL":1,
						"TEXCOORD_0":2
					},
					"indices":3,
					"material":0
				}
			]
		}
	],
	"textures":[
		{
			"sampler":0,
			"source":0
		}
	],
	"images":[
		{
			"mimeType":"image/jpeg",
			"name":"chiba_01-1200x868",
			"uri":"chiba_01-1200x868.jpg"
		}
	],
	"accessors":[
		{
			"bufferView":0,
			"componentType":5126,
			"count":1293,
			"max":[
				3.0448927879333496,
				6.384033679962158,
				1.7246947288513184
			],
			"min":[
				-3.0448927879333496,
				-0.04509782791137695,
				-1.3485467433929443
			],
			"type":"VEC3"
		},
		{
			"bufferView":1,
			"componentType":5126,
			"count":1293,
			"type":"VEC3"
		},
		{
			"bufferView":2,
			"componentType":5126,
			"count":1293,
			"type":"VEC2"
		},
		{
			"bufferView":3,
			"componentType":5123,
			"count":6036,
			"type":"SCALAR"
		}
	],
	"bufferViews":[
		{
			"buffer":0,
			"byteLength":15516,
			"byteOffset":0,
			"target":34962
		},
		{
			"buffer":0,
			"byteLength":15516,
			"byteOffset":15516,
			"target":34962
		},
		{
			"buffer":0,
			"byteLength":10344,
			"byteOffset":31032,
			"target":34962
		},
		{
			"buffer":0,
			"byteLength":12072,
			"byteOffset":41376,
			"target":34963
		}
	],
	"samplers":[
		{
			"magFilter":9729,
			"minFilter":9987
		}
	],
	"buffers":[
		{
			"byteLength":53448,
			"uri":"test2.bin"
		}
	]
}
