{
	"asset":{
		"generator":"Khronos glTF Blender I/O v5.0.21",
		"version":"2.0"
	},
	"scene":0,
	"scenes":[
		{
			"extras":{
				"skybox":1,
				"light":[
					-0.6980000138282776,
					1.0,
					0.8219999670982361
				],
				"bgm":2
			},
			"name":"Scene",
			"nodes":[
				0,
				1,
				2,
				3,
				4,
				5,
				6,
				7,
				8,
				9,
				10,
				11,
				12,
				13,
				14,
				15,
				16,
				17,
				18,
				19,
				20,
				21,
				22,
				23,
				24,
				25,
				26,
				27,
				28,
				29,
				30,
				31,
				32,
				33,
				34,
				35,
				36,
				37,
				38,
				39,
				40,
				41,
				42,
				43,
				44,
				45,
				46,
				47
			]
		}
	],
	"nodes":[
		{
			"mesh":0,
			"name":"Cube",
			"rotation":[
				0,
				0.4623816907405853,
				0,
				0.8866809606552124
			],
			"translation":[
				27.81566619873047,
				28.269948959350586,
				-63.949310302734375
			]
		},
		{
			"mesh":1,
			"name":"Cube.020",
			"rotation":[
				-0.012044358998537064,
				-0.25997453927993774,
				-0.17503982782363892,
				0.9495415687561035
			],
			"scale":[
				1.530831217765808,
				0.8123531341552734,
				1.530830979347229
			],
			"translation":[
				-9.672414779663086,
				10.715038299560547,
				-6.198681831359863
			]
		},
		{
			"mesh":2,
			"name":"Cube.021",
			"rotation":[
				0.004934489727020264,
				0.03056493028998375,
				0.06574936956167221,
				0.9973557591438293
			],
			"scale":[
				2.390948534011841,
				1.194533348083496,
				2.390948534011841
			],
			"translation":[
				-1.078843593597412,
				14.664758682250977,
				-8.44528865814209
			]
		},
		{
			"mesh":3,
			"name":"Cube.022",
			"rotation":[
				0.00353827397339046,
				-0.03470462188124657,
				-0.05966592952609062,
				0.9976086616516113
			],
			"scale":[
				4.302302837371826,
				2.128358840942383,
				4.302303791046143
			],
			"translation":[
				5.06730842590332,
				21.40880012512207,
				1.7225141525268555
			]
		},
		{
			"mesh":4,
			"name":"Model",
			"rotation":[
				-0.23097482323646545,
				0.03276713937520981,
				0.9716896414756775,
				0.03736552968621254
			],
			"scale":[
				5.291200160980225,
				5.291201114654541,
				5.291202068328857
			],
			"translation":[
				23.187665939331055,
				-32.64867401123047,
				24.601118087768555
			]
		},
		{
			"mesh":5,
			"name":"Cube.027",
			"rotation":[
				0.004934490192681551,
				0.0305649321526289,
				0.06574937701225281,
				0.9973556995391846
			],
			"scale":[
				5.476005554199219,
				2.7358477115631104,
				5.476005554199219
			],
			"translation":[
				-17.917028427124023,
				38.84272003173828,
				-93.2770767211914
			]
		},
		{
			"mesh":6,
			"name":"Cube.028",
			"rotation":[
				-0.05820763483643532,
				-0.041736651211977005,
				0.00654727453365922,
				0.9974101781845093
			],
			"scale":[
				5.476005554199219,
				2.7358477115631104,
				5.476005554199219
			],
			"translation":[
				-23.590112686157227,
				47.27604293823242,
				-104.89485931396484
			]
		},
		{
			"mesh":7,
			"name":"Cube.029",
			"rotation":[
				0.05716908723115921,
				-0.13245490193367004,
				0.037838149815797806,
				0.9888153076171875
			],
			"scale":[
				8.517036437988281,
				4.255165100097656,
				8.517035484313965
			],
			"translation":[
				-19.567712783813477,
				55.88630676269531,
				-125.67965698242188
			]
		},
		{
			"mesh":8,
			"name":"Cube.030",
			"rotation":[
				0.03400950878858566,
				0.04721618443727493,
				-0.026013873517513275,
				0.9979666471481323
			],
			"scale":[
				9.53366756439209,
				4.7630815505981445,
				9.53366756439209
			],
			"translation":[
				-1.716042160987854,
				66.03784942626953,
				-131.9561309814453
			]
		},
		{
			"mesh":9,
			"name":"Cube.031",
			"rotation":[
				-0.05719354376196861,
				-0.2092546820640564,
				0.23215404152870178,
				0.9481803178787231
			],
			"scale":[
				9.53366756439209,
				4.763081073760986,
				9.533666610717773
			],
			"translation":[
				15.882728576660156,
				74.71546173095703,
				-130.50839233398438
			]
		},
		{
			"mesh":10,
			"name":"Cube.032",
			"rotation":[
				-0.05298161879181862,
				-0.13430191576480865,
				-0.0006240218062885106,
				0.9895228743553162
			],
			"scale":[
				5.476005554199219,
				2.7358477115631104,
				5.476005554199219
			],
			"translation":[
				-1.8521931171417236,
				48.11557388305664,
				-91.76537322998047
			]
		},
		{
			"mesh":11,
			"name":"Cube.033",
			"rotation":[
				-0.01857837848365307,
				0.0007735882536508143,
				0.261862576007843,
				0.9649261236190796
			],
			"scale":[
				5.476005554199219,
				2.7358477115631104,
				5.4760050773620605
			],
			"translation":[
				8.232308387756348,
				58.131813049316406,
				-95.03988647460938
			]
		},
		{
			"mesh":12,
			"name":"Cube.034",
			"rotation":[
				-0.0654333159327507,
				-0.035208411514759064,
				0.02154320850968361,
				0.997002899646759
			],
			"scale":[
				5.476005554199219,
				2.7358477115631104,
				5.476005554199219
			],
			"translation":[
				27.942291259765625,
				68.99249267578125,
				-95.3274917602539
			]
		},
		{
			"mesh":13,
			"name":"Cube.035",
			"rotation":[
				0.01426534540951252,
				-0.015137801878154278,
				0.0043772063218057156,
				0.9997740983963013
			],
			"scale":[
				5.476005554199219,
				2.7358477115631104,
				5.476005554199219
			],
			"translation":[
				53.7757453918457,
				72.75294494628906,
				-113.05061340332031
			]
		},
		{
			"mesh":14,
			"name":"Model.001",
			"rotation":[
				0.047502465546131134,
				-0.9374750852584839,
				-0.014363585971295834,
				0.34449633955955505
			],
			"scale":[
				0.45268988609313965,
				0.4526900053024292,
				0.45269033312797546
			],
			"translation":[
				6.1803178787231445,
				84.49951171875,
				-117.57260131835938
			]
		},
		{
			"mesh":15,
			"name":"Cube.041",
			"translation":[
				8.756509780883789,
				48.72932052612305,
				104.45879364013672
			]
		},
		{
			"mesh":16,
			"name":"Cylinder.002",
			"rotation":[
				0,
				0.5035374760627747,
				0,
				0.8639733791351318
			],
			"translation":[
				-8.443007469177246,
				20.781768798828125,
				-30.75422477722168
			]
		},
		{
			"mesh":17,
			"name":"Cylinder.003",
			"rotation":[
				0,
				-0.9402078986167908,
				0,
				0.3406011164188385
			],
			"translation":[
				11.353564262390137,
				-2.211972713470459,
				-5.318507194519043
			]
		},
		{
			"mesh":18,
			"name":"Cylinder.004",
			"rotation":[
				0,
				-0.08379646390676498,
				0,
				0.9964829087257385
			],
			"translation":[
				7.179831504821777,
				26.717544555664062,
				-58.77662658691406
			]
		},
		{
			"mesh":19,
			"name":"Cube.004",
			"scale":[
				3.734217882156372,
				9.369878768920898,
				3.734217882156372
			],
			"translation":[
				-16.437294006347656,
				1.826159954071045,
				-22.770816802978516
			]
		},
		{
			"mesh":20,
			"name":"Cube.007",
			"scale":[
				1.0980719327926636,
				1.0980719327926636,
				1.0980719327926636
			],
			"translation":[
				33.83539962768555,
				-0.03519582748413086,
				13.403030395507812
			]
		},
		{
			"mesh":21,
			"name":"Cube.009",
			"scale":[
				3.734217882156372,
				9.369878768920898,
				3.734217882156372
			],
			"translation":[
				22.73902130126953,
				8.654848098754883,
				-34.516212463378906
			]
		},
		{
			"mesh":22,
			"name":"Cube.003",
			"scale":[
				1.0980719327926636,
				1.0980719327926636,
				1.0980719327926636
			],
			"translation":[
				-2.0313191413879395,
				15.232342720031738,
				-36.51222229003906
			]
		},
		{
			"mesh":23,
			"name":"Cube.005",
			"scale":[
				1.0980719327926636,
				1.0980719327926636,
				1.0980719327926636
			],
			"translation":[
				10.969888687133789,
				14.455894470214844,
				-36.362552642822266
			]
		},
		{
			"mesh":24,
			"name":"Cube.006",
			"rotation":[
				-0.15882323682308197,
				0.003440894652158022,
				0.006917091086506844,
				0.9872767925262451
			],
			"scale":[
				1.0980719327926636,
				1.0980719327926636,
				1.0980719327926636
			],
			"translation":[
				6.181573867797852,
				2.1778650283813477,
				14.200592041015625
			]
		},
		{
			"mesh":25,
			"name":"Cube.008",
			"rotation":[
				-0.10030530393123627,
				-0.01778380572795868,
				-0.010542327538132668,
				0.9947419166564941
			],
			"scale":[
				1.098071813583374,
				1.0980719327926636,
				1.0980719327926636
			],
			"translation":[
				-18.213977813720703,
				5.518794059753418,
				-11.254264831542969
			]
		},
		{
			"mesh":26,
			"name":"Cube.010",
			"rotation":[
				0.020144883543252945,
				0.003571623470634222,
				0.0021172738634049892,
				0.9997884631156921
			],
			"scale":[
				1.0980720520019531,
				1.0980719327926636,
				1.0980719327926636
			],
			"translation":[
				-11.437420845031738,
				1.4812953472137451,
				-1.64397132396698
			]
		},
		{
			"mesh":27,
			"name":"Cube.018",
			"scale":[
				3.734217882156372,
				9.369878768920898,
				3.734217882156372
			],
			"translation":[
				-10.619635581970215,
				8.474006652832031,
				-35.54054641723633
			]
		},
		{
			"mesh":28,
			"name":"Cylinder",
			"scale":[
				1.6120465993881226,
				1.6120465993881226,
				1.6120465993881226
			],
			"translation":[
				-1.1819629669189453,
				-2.4137892723083496,
				-13.331703186035156
			]
		},
		{
			"mesh":29,
			"name":"Cube.001",
			"scale":[
				2.9873604774475098,
				2.9873604774475098,
				2.9873604774475098
			],
			"translation":[
				8.155895233154297,
				10.195685386657715,
				-69.39015197753906
			]
		},
		{
			"mesh":30,
			"name":"Cube.002",
			"rotation":[
				-0.08527720719575882,
				-0.011185281910002232,
				0.023809820413589478,
				0.9960099458694458
			],
			"scale":[
				1.8994204998016357,
				4.786917686462402,
				1.8994206190109253
			],
			"translation":[
				5,
				51,
				-109
			]
		},
		{
			"mesh":31,
			"name":"Cube.011",
			"rotation":[
				-0.15095436573028564,
				-0.014807798899710178,
				-0.02661082148551941,
				0.988071620464325
			],
			"scale":[
				1.8994203805923462,
				4.786917686462402,
				1.8994206190109253
			],
			"translation":[
				41.83369445800781,
				40.34882354736328,
				-109.262939453125
			]
		},
		{
			"mesh":32,
			"name":"Cube.012",
			"scale":[
				1.0980719327926636,
				1.0980719327926636,
				1.0980719327926636
			],
			"translation":[
				65.98239135742188,
				-24.013933181762695,
				-45.52672576904297
			]
		},
		{
			"mesh":33,
			"name":"Cube.013",
			"rotation":[
				-0.15095436573028564,
				-0.014807798899710178,
				-0.02661082148551941,
				0.988071620464325
			],
			"scale":[
				1.8994203805923462,
				4.786917686462402,
				1.8994206190109253
			],
			"translation":[
				41.83369445800781,
				40.34882354736328,
				-109.262939453125
			]
		},
		{
			"mesh":34,
			"name":"Cube.014",
			"rotation":[
				-0.15095436573028564,
				-0.014807798899710178,
				-0.02661082148551941,
				0.988071620464325
			],
			"scale":[
				1.8994203805923462,
				4.786917686462402,
				1.8994206190109253
			],
			"translation":[
				41.83369445800781,
				40.34882354736328,
				-109.262939453125
			]
		},
		{
			"extras":{
				"testing":1.0
			},
			"mesh":35,
			"name":"Cube.015",
			"scale":[
				1.0980719327926636,
				1.0980719327926636,
				1.0980719327926636
			],
			"translation":[
				1.5006322860717773,
				10.352656364440918,
				-5.310129642486572
			]
		},
		{
			"mesh":36,
			"name":"Cube.016",
			"scale":[
				1.0980719327926636,
				1.0980719327926636,
				1.0980719327926636
			],
			"translation":[
				-2.0313191413879395,
				15.232342720031738,
				-36.51222229003906
			]
		},
		{
			"mesh":37,
			"name":"Cube.017",
			"scale":[
				1.0980719327926636,
				1.0980719327926636,
				1.0980719327926636
			],
			"translation":[
				-2.0313191413879395,
				15.232342720031738,
				-36.51222229003906
			]
		},
		{
			"mesh":38,
			"name":"Cylinder.001",
			"rotation":[
				-0.042537715286016464,
				-0.14918915927410126,
				0.15404343605041504,
				0.9758092761039734
			],
			"scale":[
				2.335775375366211,
				2.33577561378479,
				2.335775375366211
			],
			"translation":[
				-49.62675476074219,
				-18.69907569885254,
				-112.00465393066406
			]
		},
		{
			"mesh":39,
			"name":"Cube.019",
			"rotation":[
				-0.7453498244285583,
				-0.15155847370624542,
				-0.5657520294189453,
				0.31844669580459595
			],
			"scale":[
				2.987360715866089,
				2.9873604774475098,
				2.9873604774475098
			],
			"translation":[
				-100.35504913330078,
				-25.922000885009766,
				-96.7838134765625
			]
		},
		{
			"mesh":40,
			"name":"Cube.023",
			"rotation":[
				-0.060693010687828064,
				-0.03474491089582443,
				-0.13775117695331573,
				0.987994909286499
			],
			"scale":[
				1.3683867454528809,
				1.3683868646621704,
				1.3683867454528809
			],
			"translation":[
				34.859493255615234,
				-8.98880386352539,
				-16.177288055419922
			]
		},
		{
			"mesh":41,
			"name":"Cube.024",
			"rotation":[
				0,
				0.24309317767620087,
				0,
				0.9700029492378235
			],
			"scale":[
				2.633478879928589,
				7.22132682800293,
				1.1344621181488037
			],
			"translation":[
				46.21693801879883,
				-16.469924926757812,
				-44.8984260559082
			]
		},
		{
			"mesh":42,
			"name":"Cube.025",
			"rotation":[
				0,
				-0.9999815225601196,
				0,
				0.0060948519967496395
			],
			"scale":[
				4.47371768951416,
				18.973421096801758,
				1.7975236177444458
			],
			"translation":[
				34.4854736328125,
				31.096328735351562,
				-52.77370834350586
			]
		},
		{
			"mesh":43,
			"name":"Cube.026",
			"rotation":[
				0,
				-0.7422155141830444,
				0,
				0.670161247253418
			],
			"scale":[
				4.007839202880859,
				16.99758529663086,
				1.610334873199463
			],
			"translation":[
				39.84697723388672,
				28.483381271362305,
				-60.24091339111328
			]
		},
		{
			"mesh":44,
			"name":"Cube.037",
			"scale":[
				1.0980719327926636,
				1.0980719327926636,
				1.0980719327926636
			],
			"translation":[
				45.869266510009766,
				37.07749938964844,
				-44.85826873779297
			]
		},
		{
			"mesh":45,
			"name":"Cube.038",
			"rotation":[
				0,
				-0.9982370138168335,
				0,
				0.059354402124881744
			],
			"scale":[
				2.9873604774475098,
				2.9873604774475098,
				2.9873604774475098
			],
			"translation":[
				3.525501251220703,
				21.20256233215332,
				26.16309928894043
			]
		},
		{
			"mesh":46,
			"name":"Cube.039",
			"rotation":[
				-0.21998220682144165,
				0.9633539319038391,
				0.08267464488744736,
				0.1293133646249771
			],
			"scale":[
				2.987360715866089,
				2.9873604774475098,
				2.9873604774475098
			],
			"translation":[
				9.184715270996094,
				29.343435287475586,
				50.26448440551758
			]
		},
		{
			"mesh":47,
			"name":"Cube.040",
			"rotation":[
				-0.08923499286174774,
				0.9860240817070007,
				-0.1401858776807785,
				0.011898272670805454
			],
			"scale":[
				2.9873604774475098,
				2.9873604774475098,
				2.9873604774475098
			],
			"translation":[
				9.97343635559082,
				33.818546295166016,
				75.53871154785156
			]
		}
	],
	"materials":[
		{
			"doubleSided":true,
			"emissiveFactor":[
				1,
				1,
				1
			],
			"emissiveTexture":{
				"index":0
			},
			"name":"Material",
			"pbrMetallicRoughness":{
				"baseColorFactor":[
					0,
					0,
					0,
					1
				]
			}
		},
		{
			"doubleSided":true,
			"emissiveFactor":[
				1,
				1,
				1
			],
			"emissiveTexture":{
				"index":1
			},
			"name":"Material.002",
			"pbrMetallicRoughness":{
				"baseColorFactor":[
					0,
					0,
					0,
					1
				]
			}
		},
		{
			"doubleSided":true,
			"emissiveFactor":[
				1,
				1,
				1
			],
			"emissiveTexture":{
				"index":2
			},
			"name":"Material.004",
			"pbrMetallicRoughness":{
				"baseColorFactor":[
					0,
					0,
					0,
					1
				]
			}
		},
		{
			"doubleSided":true,
			"emissiveFactor":[
				1,
				1,
				1
			],
			"emissiveTexture":{
				"index":3
			},
			"name":"Material.001",
			"pbrMetallicRoughness":{
				"baseColorFactor":[
					0,
					0,
					0,
					1
				]
			}
		}
	],
	"meshes":[
		{
			"extras":{
				"level":1
			},
			"name":"Cube",
			"primitives":[
				{
					"attributes":{
						"POSITION":0,
						"NORMAL":1,
						"TEXCOORD_0":2
					},
					"indices":3,
					"material":0
				}
			]
		},
		{
			"name":"Cube.019",
			"primitives":[
				{
					"attributes":{
						"POSITION":4,
						"NORMAL":5,
						"TEXCOORD_0":6
					},
					"indices":7,
					"material":0
				}
			]
		},
		{
			"name":"Cube.021",
			"primitives":[
				{
					"attributes":{
						"POSITION":8,
						"NORMAL":9,
						"TEXCOORD_0":10
					},
					"indices":7,
					"material":0
				}
			]
		},
		{
			"name":"Cube.022",
			"primitives":[
				{
					"attributes":{
						"POSITION":11,
						"NORMAL":12,
						"TEXCOORD_0":13
					},
					"indices":7,
					"material":0
				}
			]
		},
		{
			"extras":{
				"nonsolid":true
			},
			"name":"Model",
			"primitives":[
				{
					"attributes":{
						"POSITION":14,
						"NORMAL":15,
						"TEXCOORD_0":16
					},
					"indices":17,
					"material":1
				}
			]
		},
		{
			"name":"Cube.027",
			"primitives":[
				{
					"attributes":{
						"POSITION":18,
						"NORMAL":19,
						"TEXCOORD_0":20
					},
					"indices":7,
					"material":0
				}
			]
		},
		{
			"name":"Cube.028",
			"primitives":[
				{
					"attributes":{
						"POSITION":21,
						"NORMAL":22,
						"TEXCOORD_0":23
					},
					"indices":7,
					"material":0
				}
			]
		},
		{
			"name":"Cube.029",
			"primitives":[
				{
					"attributes":{
						"POSITION":24,
						"NORMAL":25,
						"TEXCOORD_0":26
					},
					"indices":7,
					"material":0
				}
			]
		},
		{
			"name":"Cube.030",
			"primitives":[
				{
					"attributes":{
						"POSITION":27,
						"NORMAL":28,
						"TEXCOORD_0":29
					},
					"indices":7,
					"material":0
				}
			]
		},
		{
			"name":"Cube.031",
			"primitives":[
				{
					"attributes":{
						"POSITION":30,
						"NORMAL":31,
						"TEXCOORD_0":32
					},
					"indices":7,
					"material":0
				}
			]
		},
		{
			"name":"Cube.032",
			"primitives":[
				{
					"attributes":{
						"POSITION":33,
						"NORMAL":34,
						"TEXCOORD_0":35
					},
					"indices":7,
					"material":0
				}
			]
		},
		{
			"name":"Cube.033",
			"primitives":[
				{
					"attributes":{
						"POSITION":36,
						"NORMAL":37,
						"TEXCOORD_0":38
					},
					"indices":7,
					"material":0
				}
			]
		},
		{
			"name":"Cube.034",
			"primitives":[
				{
					"attributes":{
						"POSITION":39,
						"NORMAL":40,
						"TEXCOORD_0":41
					},
					"indices":7,
					"material":0
				}
			]
		},
		{
			"name":"Cube.035",
			"primitives":[
				{
					"attributes":{
						"POSITION":42,
						"NORMAL":43,
						"TEXCOORD_0":44
					},
					"indices":7,
					"material":0
				}
			]
		},
		{
			"extras":{
				"nonsolid":true
			},
			"name":"Model.001",
			"primitives":[
				{
					"attributes":{
						"POSITION":45,
						"NORMAL":46,
						"TEXCOORD_0":47
					},
					"indices":17,
					"material":2
				}
			]
		},
		{
			"extras":{
				"spawn":[
					0.0,
					0.0,
					0.0
				],
				"level":2
			},
			"name":"Cube.041",
			"primitives":[
				{
					"attributes":{
						"POSITION":48,
						"NORMAL":49,
						"TEXCOORD_0":50
					},
					"indices":3,
					"material":0
				}
			]
		},
		{
			"extras":{
				"npc":1,
				"name":"LIZARD",
				"dialogue":""
			},
			"name":"Cylinder.002",
			"primitives":[
				{
					"attributes":{
						"POSITION":51,
						"NORMAL":52,
						"TEXCOORD_0":53
					},
					"indices":54
				}
			]
		},
		{
			"extras":{
				"npc":1
			},
			"name":"Cylinder.003",
			"primitives":[
				{
					"attributes":{
						"POSITION":55,
						"NORMAL":56,
						"TEXCOORD_0":57
					},
					"indices":54
				}
			]
		},
		{
			"extras":{
				"npc":1
			},
			"name":"Cylinder.004",
			"primitives":[
				{
					"attributes":{
						"POSITION":58,
						"NORMAL":59,
						"TEXCOORD_0":60
					},
					"indices":54
				}
			]
		},
		{
			"name":"Cube.004",
			"primitives":[
				{
					"attributes":{
						"POSITION":61,
						"NORMAL":62,
						"TEXCOORD_0":63
					},
					"indices":64,
					"material":0
				}
			]
		},
		{
			"name":"Cube.007",
			"primitives":[
				{
					"attributes":{
						"POSITION":65,
						"NORMAL":66,
						"TEXCOORD_0":67
					},
					"indices":68,
					"material":0
				}
			]
		},
		{
			"name":"Cube.009",
			"primitives":[
				{
					"attributes":{
						"POSITION":69,
						"NORMAL":70,
						"TEXCOORD_0":71
					},
					"indices":72,
					"material":0
				}
			]
		},
		{
			"name":"Cube.012",
			"primitives":[
				{
					"attributes":{
						"POSITION":73,
						"NORMAL":74,
						"TEXCOORD_0":75
					},
					"indices":76,
					"material":0
				}
			]
		},
		{
			"name":"Cube.013",
			"primitives":[
				{
					"attributes":{
						"POSITION":77,
						"NORMAL":78,
						"TEXCOORD_0":79
					},
					"indices":80,
					"material":0
				}
			]
		},
		{
			"name":"Cube.014",
			"primitives":[
				{
					"attributes":{
						"POSITION":81,
						"NORMAL":82,
						"TEXCOORD_0":83
					},
					"indices":84,
					"material":2
				}
			]
		},
		{
			"name":"Cube.015",
			"primitives":[
				{
					"attributes":{
						"POSITION":85,
						"NORMAL":86,
						"TEXCOORD_0":87
					},
					"indices":88,
					"material":0
				}
			]
		},
		{
			"name":"Cube.016",
			"primitives":[
				{
					"attributes":{
						"POSITION":89,
						"NORMAL":90,
						"TEXCOORD_0":91
					},
					"indices":92,
					"material":0
				}
			]
		},
		{
			"name":"Cube.018",
			"primitives":[
				{
					"attributes":{
						"POSITION":93,
						"NORMAL":94,
						"TEXCOORD_0":95
					},
					"indices":64,
					"material":0
				}
			]
		},
		{
			"name":"Cylinder",
			"primitives":[
				{
					"attributes":{
						"POSITION":96,
						"NORMAL":97,
						"TEXCOORD_0":98
					},
					"indices":99,
					"material":3
				}
			]
		},
		{
			"name":"Cube.001",
			"primitives":[
				{
					"attributes":{
						"POSITION":100,
						"NORMAL":101,
						"TEXCOORD_0":102
					},
					"indices":103,
					"material":1
				}
			]
		},
		{
			"name":"Cube.002",
			"primitives":[
				{
					"attributes":{
						"POSITION":104,
						"NORMAL":105,
						"TEXCOORD_0":106
					},
					"indices":107,
					"material":2
				}
			]
		},
		{
			"name":"Cube.003",
			"primitives":[
				{
					"attributes":{
						"POSITION":108,
						"NORMAL":109,
						"TEXCOORD_0":110
					},
					"indices":111,
					"material":0
				}
			]
		},
		{
			"name":"Cube.005",
			"primitives":[
				{
					"attributes":{
						"POSITION":112,
						"NORMAL":113,
						"TEXCOORD_0":114
					},
					"indices":68,
					"material":0
				}
			]
		},
		{
			"name":"Cube.006",
			"primitives":[
				{
					"attributes":{
						"POSITION":115,
						"NORMAL":116,
						"TEXCOORD_0":117
					},
					"indices":118,
					"material":0
				}
			]
		},
		{
			"name":"Cube.008",
			"primitives":[
				{
					"attributes":{
						"POSITION":119,
						"NORMAL":120,
						"TEXCOORD_0":121
					},
					"indices":122,
					"material":0
				}
			]
		},
		{
			"extras":{
				"level":0,
				"spawn":[
					2.4306800365448,
					12.491800308227539,
					70.92610168457031
				]
			},
			"name":"Cube.010",
			"primitives":[
				{
					"attributes":{
						"POSITION":123,
						"NORMAL":124,
						"TEXCOORD_0":125
					},
					"indices":92,
					"material":3
				}
			]
		},
		{
			"name":"Cube.011",
			"primitives":[
				{
					"attributes":{
						"POSITION":126,
						"NORMAL":127,
						"TEXCOORD_0":128
					},
					"indices":129,
					"material":0
				}
			]
		},
		{
			"name":"Cube.017",
			"primitives":[
				{
					"attributes":{
						"POSITION":130,
						"NORMAL":131,
						"TEXCOORD_0":132
					},
					"indices":133,
					"material":0
				}
			]
		},
		{
			"name":"Cylinder.001",
			"primitives":[
				{
					"attributes":{
						"POSITION":134,
						"NORMAL":135,
						"TEXCOORD_0":136
					},
					"indices":99,
					"material":3
				}
			]
		},
		{
			"name":"Cube.020",
			"primitives":[
				{
					"attributes":{
						"POSITION":137,
						"NORMAL":138,
						"TEXCOORD_0":139
					},
					"indices":140,
					"material":2
				}
			]
		},
		{
			"name":"Cube.023",
			"primitives":[
				{
					"attributes":{
						"POSITION":141,
						"NORMAL":142,
						"TEXCOORD_0":143
					},
					"indices":92,
					"material":0
				}
			]
		},
		{
			"name":"Cube.024",
			"primitives":[
				{
					"attributes":{
						"POSITION":144,
						"NORMAL":145,
						"TEXCOORD_0":146
					},
					"indices":72,
					"material":0
				}
			]
		},
		{
			"name":"Cube.025",
			"primitives":[
				{
					"attributes":{
						"POSITION":147,
						"NORMAL":148,
						"TEXCOORD_0":149
					},
					"indices":72,
					"material":0
				}
			]
		},
		{
			"name":"Cube.026",
			"primitives":[
				{
					"attributes":{
						"POSITION":150,
						"NORMAL":151,
						"TEXCOORD_0":152
					},
					"indices":72,
					"material":0
				}
			]
		},
		{
			"extras":{
				"level":0,
				"spawn":[
					2.4306800365448,
					12.491800308227539,
					70.92610168457031
				]
			},
			"name":"Cube.037",
			"primitives":[
				{
					"attributes":{
						"POSITION":153,
						"NORMAL":154,
						"TEXCOORD_0":155
					},
					"indices":92,
					"material":3
				}
			]
		},
		{
			"name":"Cube.038",
			"primitives":[
				{
					"attributes":{
						"POSITION":156,
						"NORMAL":157,
						"TEXCOORD_0":158
					},
					"indices":107,
					"material":2
				}
			]
		},
		{
			"name":"Cube.039",
			"primitives":[
				{
					"attributes":{
						"POSITION":159,
						"NORMAL":160,
						"TEXCOORD_0":161
					},
					"indices":107,
					"material":2
				}
			]
		},
		{
			"name":"Cube.040",
			"primitives":[
				{
					"attributes":{
						"POSITION":162,
						"NORMAL":163,
						"TEXCOORD_0":164
					},
					"indices":165,
					"material":1
				}
			]
		}
	],
	"textures":[
		{
			"sampler":0,
			"source":0
		},
		{
			"sampler":0,
			"source":1
		},
		{
			"sampler":0,
			"source":2
		},
		{
			"sampler":0,
			"source":3
		}
	],
	"images":[
		{
			"mimeType":"image/jpeg",
			"name":"82-05 FB RGB",
			"uri":"82-05%20FB%20RGB.jpg"
		},
		{
			"mimeType":"image/png",
			"name":"Maggie-Roberts-The-Other-Side-of-the-Octopus-2018-TP-WEB",
			"uri":"Maggie-Roberts-The-Other-Side-of-the-Octopus-2018-TP-WEB.png"
		},
		{
			"mimeType":"image/jpeg",
			"name":"th-3357577538",
			"uri":"th-3357577538.jpg"
		},
		{
			"mimeType":"image/jpeg",
			"name":"download - 2020-10-21T151401.527",
			"uri":"download%20-%202020-10-21T151401.527.jpg"
		}
	],
	"accessors":[
		{
			"bufferView":0,
			"componentType":5126,
			"count":365,
			"max":[
				1.3856873512268066,
				5.799676895141602,
				1.9180378913879395
			],
			"min":[
				-1.3856815099716187,
				-1.3075637817382812,
				-3.147723913192749
			],
			"type":"VEC3"
		},
		{
			"bufferView":1,
			"componentType":5126,
			"count":365,
			"type":"VEC3"
		},
		{
			"bufferView":2,
			"componentType":5126,
			"count":365,
			"type":"VEC2"
		},
		{
			"bufferView":3,
			"componentType":5123,
			"count":1164,
			"type":"SCALAR"
		},
		{
			"bufferView":4,
			"componentType":5126,
			"count":14,
			"max":[
				1,
				1,
				1
			],
			"min":[
				-1,
				-1,
				-1
			],
			"type":"VEC3"
		},
		{
			"bufferView":5,
			"componentType":5126,
			"count":14,
			"type":"VEC3"
		},
		{
			"bufferView":6,
			"componentType":5126,
			"count":14,
			"type":"VEC2"
		},
		{
			"bufferView":7,
			"componentType":5123,
			"count":36,
			"type":"SCALAR"
		},
		{
			"bufferView":8,
			"componentType":5126,
			"count":14,
			"max":[
				1,
				1,
				1
			],
			"min":[
				-1,
				-1,
				-1
			],
			"type":"VEC3"
		},
		{
			"bufferView":9,
			"componentType":5126,
			"count":14,
			"type":"VEC3"
		},
		{
			"bufferView":10,
			"componentType":5126,
			"count":14,
			"type":"VEC2"
		},
		{
			"bufferView":11,
			"componentType":5126,
			"count":14,
			"max":[
				1.0656505823135376,
				-0.1045072078704834,
				1.0016059875488281
			],
			"min":[
				-1,
				-1,
				-1
			],
			"type":"VEC3"
		},
		{
			"bufferView":12,
			"componentType":5126,
			"count":14,
			"type":"VEC3"
		},
		{
			"bufferView":13,
			"componentType":5126,
			"count":14,
			"type":"VEC2"
		},
		{
			"bufferView":14,
			"componentType":5126,
			"count":15098,
			"max":[
				35.25361251831055,
				23.733728408813477,
				29.483213424682617
			],
			"min":[
				-27.33304214477539,
				-20.796464920043945,
				-33.85342025756836
			],
			"type":"VEC3"
		},
		{
			"bufferView":15,
			"componentType":5126,
			"count":15098,
			"type":"VEC3"
		},
		{
			"bufferView":16,
			"componentType":5126,
			"count":15098,
			"type":"VEC2"
		},
		{
			"bufferView":17,
			"componentType":5123,
			"count":80052,
			"type":"SCALAR"
		},
		{
			"bufferView":18,
			"componentType":5126,
			"count":14,
			"max":[
				1,
				-0.20827269554138184,
				1
			],
			"min":[
				-1,
				-1,
				-1
			],
			"type":"VEC3"
		},
		{
			"bufferView":19,
			"componentType":5126,
			"count":14,
			"type":"VEC3"
		},
		{
			"bufferView":20,
			"componentType":5126,
			"count":14,
			"type":"VEC2"
		},
		{
			"bufferView":21,
			"componentType":5126,
			"count":14,
			"max":[
				1,
				-0.20827269554138184,
				1
			],
			"min":[
				-1,
				-1,
				-1
			],
			"type":"VEC3"
		},
		{
			"bufferView":22,
			"componentType":5126,
			"count":14,
			"type":"VEC3"
		},
		{
			"bufferView":23,
			"componentType":5126,
			"count":14,
			"type":"VEC2"
		},
		{
			"bufferView":24,
			"componentType":5126,
			"count":14,
			"max":[
				1,
				-0.20827269554138184,
				1
			],
			"min":[
				-1,
				-1,
				-1
			],
			"type":"VEC3"
		},
		{
			"bufferView":25,
			"componentType":5126,
			"count":14,
			"type":"VEC3"
		},
		{
			"bufferView":26,
			"componentType":5126,
			"count":14,
			"type":"VEC2"
		},
		{
			"bufferView":27,
			"componentType":5126,
			"count":14,
			"max":[
				1,
				-0.20827269554138184,
				1
			],
			"min":[
				-1,
				-1,
				-1
			],
			"type":"VEC3"
		},
		{
			"bufferView":28,
			"componentType":5126,
			"count":14,
			"type":"VEC3"
		},
		{
			"bufferView":29,
			"componentType":5126,
			"count":14,
			"type":"VEC2"
		},
		{
			"bufferView":30,
			"componentType":5126,
			"count":14,
			"max":[
				1,
				-0.20827269554138184,
				1
			],
			"min":[
				-1,
				-1,
				-1
			],
			"type":"VEC3"
		},
		{
			"bufferView":31,
			"componentType":5126,
			"count":14,
			"type":"VEC3"
		},
		{
			"bufferView":32,
			"componentType":5126,
			"count":14,
			"type":"VEC2"
		},
		{
			"bufferView":33,
			"componentType":5126,
			"count":14,
			"max":[
				1,
				-0.20827269554138184,
				1
			],
			"min":[
				-1,
				-1,
				-1
			],
			"type":"VEC3"
		},
		{
			"bufferView":34,
			"componentType":5126,
			"count":14,
			"type":"VEC3"
		},
		{
			"bufferView":35,
			"componentType":5126,
			"count":14,
			"type":"VEC2"
		},
		{
			"bufferView":36,
			"componentType":5126,
			"count":14,
			"max":[
				1,
				-0.20827269554138184,
				1
			],
			"min":[
				-1,
				-1,
				-1
			],
			"type":"VEC3"
		},
		{
			"bufferView":37,
			"componentType":5126,
			"count":14,
			"type":"VEC3"
		},
		{
			"bufferView":38,
			"componentType":5126,
			"count":14,
			"type":"VEC2"
		},
		{
			"bufferView":39,
			"componentType":5126,
			"count":14,
			"max":[
				1,
				-0.20827269554138184,
				1
			],
			"min":[
				-1,
				-1,
				-1
			],
			"type":"VEC3"
		},
		{
			"bufferView":40,
			"componentType":5126,
			"count":14,
			"type":"VEC3"
		},
		{
			"bufferView":41,
			"componentType":5126,
			"count":14,
			"type":"VEC2"
		},
		{
			"bufferView":42,
			"componentType":5126,
			"count":14,
			"max":[
				1,
				-0.20827269554138184,
				1
			],
			"min":[
				-1,
				-1,
				0.2535210847854614
			],
			"type":"VEC3"
		},
		{
			"bufferView":43,
			"componentType":5126,
			"count":14,
			"type":"VEC3"
		},
		{
			"bufferView":44,
			"componentType":5126,
			"count":14,
			"type":"VEC2"
		},
		{
			"bufferView":45,
			"componentType":5126,
			"count":15098,
			"max":[
				35.25361251831055,
				23.733728408813477,
				29.483213424682617
			],
			"min":[
				-27.33304214477539,
				-20.796464920043945,
				-33.85342025756836
			],
			"type":"VEC3"
		},
		{
			"bufferView":46,
			"componentType":5126,
			"count":15098,
			"type":"VEC3"
		},
		{
			"bufferView":47,
			"componentType":5126,
			"count":15098,
			"type":"VEC2"
		},
		{
			"bufferView":48,
			"componentType":5126,
			"count":365,
			"max":[
				1.3856873512268066,
				5.799676895141602,
				1.9180378913879395
			],
			"min":[
				-1.3856815099716187,
				-1.3075637817382812,
				-3.147723913192749
			],
			"type":"VEC3"
		},
		{
			"bufferView":49,
			"componentType":5126,
			"count":365,
			"type":"VEC3"
		},
		{
			"bufferView":50,
			"componentType":5126,
			"count":365,
			"type":"VEC2"
		},
		{
			"bufferView":51,
			"componentType":5126,
			"count":192,
			"max":[
				1,
				1,
				1
			],
			"min":[
				-1,
				-1,
				-1
			],
			"type":"VEC3"
		},
		{
			"bufferView":52,
			"componentType":5126,
			"count":192,
			"type":"VEC3"
		},
		{
			"bufferView":53,
			"componentType":5126,
			"count":192,
			"type":"VEC2"
		},
		{
			"bufferView":54,
			"componentType":5123,
			"count":372,
			"type":"SCALAR"
		},
		{
			"bufferView":55,
			"componentType":5126,
			"count":192,
			"max":[
				1,
				1,
				1
			],
			"min":[
				-1,
				-1,
				-1
			],
			"type":"VEC3"
		},
		{
			"bufferView":56,
			"componentType":5126,
			"count":192,
			"type":"VEC3"
		},
		{
			"bufferView":57,
			"componentType":5126,
			"count":192,
			"type":"VEC2"
		},
		{
			"bufferView":58,
			"componentType":5126,
			"count":192,
			"max":[
				1,
				1,
				1
			],
			"min":[
				-1,
				-1,
				-1
			],
			"type":"VEC3"
		},
		{
			"bufferView":59,
			"componentType":5126,
			"count":192,
			"type":"VEC3"
		},
		{
			"bufferView":60,
			"componentType":5126,
			"count":192,
			"type":"VEC2"
		},
		{
			"bufferView":61,
			"componentType":5126,
			"count":51,
			"max":[
				3.13867449760437,
				0.946384072303772,
				3.128389835357666
			],
			"min":[
				-3.138672113418579,
				-0.10249954462051392,
				-3.1283864974975586
			],
			"type":"VEC3"
		},
		{
			"bufferView":62,
			"componentType":5126,
			"count":51,
			"type":"VEC3"
		},
		{
			"bufferView":63,
			"componentType":5126,
			"count":51,
			"type":"VEC2"
		},
		{
			"bufferView":64,
			"componentType":5123,
			"count":240,
			"type":"SCALAR"
		},
		{
			"bufferView":65,
			"componentType":5126,
			"count":24,
			"max":[
				2.654801845550537,
				5.730880260467529,
				-17.18256950378418
			],
			"min":[
				-22.147560119628906,
				3.7308802604675293,
				-27.018327713012695
			],
			"type":"VEC3"
		},
		{
			"bufferView":66,
			"componentType":5126,
			"count":24,
			"type":"VEC3"
		},
		{
			"bufferView":67,
			"componentType":5126,
			"count":24,
			"type":"VEC2"
		},
		{
			"bufferView":68,
			"componentType":5123,
			"count":36,
			"type":"SCALAR"
		},
		{
			"bufferView":69,
			"componentType":5126,
			"count":24,
			"max":[
				1.991323471069336,
				1.0129681825637817,
				3.946859121322632
			],
			"min":[
				-1.9913244247436523,
				-0.3417038917541504,
				-3.9468533992767334
			],
			"type":"VEC3"
		},
		{
			"bufferView":70,
			"componentType":5126,
			"count":24,
			"type":"VEC3"
		},
		{
			"bufferView":71,
			"componentType":5126,
			"count":24,
			"type":"VEC2"
		},
		{
			"bufferView":72,
			"componentType":5123,
			"count":36,
			"type":"SCALAR"
		},
		{
			"bufferView":73,
			"componentType":5126,
			"count":16,
			"max":[
				-0.6832666397094727,
				-9.086024284362793,
				8.484848022460938
			],
			"min":[
				-7.461452484130859,
				-14.072980880737305,
				-8.484854698181152
			],
			"type":"VEC3"
		},
		{
			"bufferView":74,
			"componentType":5126,
			"count":16,
			"type":"VEC3"
		},
		{
			"bufferView":75,
			"componentType":5126,
			"count":16,
			"type":"VEC2"
		},
		{
			"bufferView":76,
			"componentType":5123,
			"count":36,
			"type":"SCALAR"
		},
		{
			"bufferView":77,
			"componentType":5126,
			"count":24,
			"max":[
				4.324699878692627,
				0.9999998807907104,
				4.917875289916992
			],
			"min":[
				-4.32471227645874,
				-0.9999998807907104,
				-4.917882442474365
			],
			"type":"VEC3"
		},
		{
			"bufferView":78,
			"componentType":5126,
			"count":24,
			"type":"VEC3"
		},
		{
			"bufferView":79,
			"componentType":5126,
			"count":24,
			"type":"VEC2"
		},
		{
			"bufferView":80,
			"componentType":5123,
			"count":36,
			"type":"SCALAR"
		},
		{
			"bufferView":81,
			"componentType":5126,
			"count":42,
			"max":[
				10.43991470336914,
				0.9999998807907104,
				6.723372459411621
			],
			"min":[
				-10.439926147460938,
				-0.9999998807907104,
				-6.695117950439453
			],
			"type":"VEC3"
		},
		{
			"bufferView":82,
			"componentType":5126,
			"count":42,
			"type":"VEC3"
		},
		{
			"bufferView":83,
			"componentType":5126,
			"count":42,
			"type":"VEC2"
		},
		{
			"bufferView":84,
			"componentType":5123,
			"count":96,
			"type":"SCALAR"
		},
		{
			"bufferView":85,
			"componentType":5126,
			"count":24,
			"max":[
				4.324699878692627,
				0.9999998807907104,
				4.917875289916992
			],
			"min":[
				-4.32471227645874,
				-0.9999998807907104,
				-4.917882442474365
			],
			"type":"VEC3"
		},
		{
			"bufferView":86,
			"componentType":5126,
			"count":24,
			"type":"VEC3"
		},
		{
			"bufferView":87,
			"componentType":5126,
			"count":24,
			"type":"VEC2"
		},
		{
			"bufferView":88,
			"componentType":5123,
			"count":36,
			"type":"SCALAR"
		},
		{
			"bufferView":89,
			"componentType":5126,
			"count":24,
			"max":[
				4.324699878692627,
				0.9999998807907104,
				4.917875289916992
			],
			"min":[
				-4.32471227645874,
				-0.9999998807907104,
				-4.917882442474365
			],
			"type":"VEC3"
		},
		{
			"bufferView":90,
			"componentType":5126,
			"count":24,
			"type":"VEC3"
		},
		{
			"bufferView":91,
			"componentType":5126,
			"count":24,
			"type":"VEC2"
		},
		{
			"bufferView":92,
			"componentType":5123,
			"count":36,
			"type":"SCALAR"
		},
		{
			"bufferView":93,
			"componentType":5126,
			"count":51,
			"max":[
				-0.8176407814025879,
				1.2004024982452393,
				1.7929046154022217
			],
			"min":[
				-5.193765640258789,
				-0.36302316188812256,
				-2.568880319595337
			],
			"type":"VEC3"
		},
		{
			"bufferView":94,
			"componentType":5126,
			"count":51,
			"type":"VEC3"
		},
		{
			"bufferView":95,
			"componentType":5126,
			"count":51,
			"type":"VEC2"
		},
		{
			"bufferView":96,
			"componentType":5126,
			"count":94,
			"max":[
				20.745014190673828,
				2.412900447845459,
				20.745010375976562
			],
			"min":[
				-20.745014190673828,
				-4.248856544494629,
				-20.745014190673828
			],
			"type":"VEC3"
		},
		{
			"bufferView":97,
			"componentType":5126,
			"count":94,
			"type":"VEC3"
		},
		{
			"bufferView":98,
			"componentType":5126,
			"count":94,
			"type":"VEC2"
		},
		{
			"bufferView":99,
			"componentType":5123,
			"count":372,
			"type":"SCALAR"
		},
		{
			"bufferView":100,
			"componentType":5126,
			"count":48,
			"max":[
				13.168280601501465,
				6.522959232330322,
				8.484848022460938
			],
			"min":[
				-13.168292999267578,
				-14.072980880737305,
				-8.484854698181152
			],
			"type":"VEC3"
		},
		{
			"bufferView":101,
			"componentType":5126,
			"count":48,
			"type":"VEC3"
		},
		{
			"bufferView":102,
			"componentType":5126,
			"count":48,
			"type":"VEC2"
		},
		{
			"bufferView":103,
			"componentType":5123,
			"count":132,
			"type":"SCALAR"
		},
		{
			"bufferView":104,
			"componentType":5126,
			"count":24,
			"max":[
				13.168280601501465,
				6.742456436157227,
				8.484848022460938
			],
			"min":[
				-13.168292999267578,
				-14.072980880737305,
				-8.484854698181152
			],
			"type":"VEC3"
		},
		{
			"bufferView":105,
			"componentType":5126,
			"count":24,
			"type":"VEC3"
		},
		{
			"bufferView":106,
			"componentType":5126,
			"count":24,
			"type":"VEC2"
		},
		{
			"bufferView":107,
			"componentType":5123,
			"count":36,
			"type":"SCALAR"
		},
		{
			"bufferView":108,
			"componentType":5126,
			"count":20,
			"max":[
				15.542196273803711,
				0.43362975120544434,
				8.484848022460938
			],
			"min":[
				-13.168292999267578,
				-14.072980880737305,
				-9.835213661193848
			],
			"type":"VEC3"
		},
		{
			"bufferView":109,
			"componentType":5126,
			"count":20,
			"type":"VEC3"
		},
		{
			"bufferView":110,
			"componentType":5126,
			"count":20,
			"type":"VEC2"
		},
		{
			"bufferView":111,
			"componentType":5123,
			"count":36,
			"type":"SCALAR"
		},
		{
			"bufferView":112,
			"componentType":5126,
			"count":24,
			"max":[
				-0.5403847694396973,
				7.58575439453125,
				26.635540008544922
			],
			"min":[
				-100.22624969482422,
				0.6174929141998291,
				-30.07384490966797
			],
			"type":"VEC3"
		},
		{
			"bufferView":113,
			"componentType":5126,
			"count":24,
			"type":"VEC3"
		},
		{
			"bufferView":114,
			"componentType":5126,
			"count":24,
			"type":"VEC2"
		},
		{
			"bufferView":115,
			"componentType":5126,
			"count":16,
			"max":[
				-2.286602020263672,
				8.358809471130371,
				12.268930435180664
			],
			"min":[
				-10.794377326965332,
				-1.2973368167877197,
				-9.835213661193848
			],
			"type":"VEC3"
		},
		{
			"bufferView":116,
			"componentType":5126,
			"count":16,
			"type":"VEC3"
		},
		{
			"bufferView":117,
			"componentType":5126,
			"count":16,
			"type":"VEC2"
		},
		{
			"bufferView":118,
			"componentType":5123,
			"count":30,
			"type":"SCALAR"
		},
		{
			"bufferView":119,
			"componentType":5126,
			"count":20,
			"max":[
				14.041259765625,
				8.358809471130371,
				12.268930435180664
			],
			"min":[
				5.877328872680664,
				-1.2973368167877197,
				-9.835213661193848
			],
			"type":"VEC3"
		},
		{
			"bufferView":120,
			"componentType":5126,
			"count":20,
			"type":"VEC3"
		},
		{
			"bufferView":121,
			"componentType":5126,
			"count":20,
			"type":"VEC2"
		},
		{
			"bufferView":122,
			"componentType":5123,
			"count":36,
			"type":"SCALAR"
		},
		{
			"bufferView":123,
			"componentType":5126,
			"count":24,
			"max":[
				-0.5725719928741455,
				-3.152601957321167,
				-20.49324607849121
			],
			"min":[
				-4.28617000579834,
				-10.41141414642334,
				-21.569759368896484
			],
			"type":"VEC3"
		},
		{
			"bufferView":124,
			"componentType":5126,
			"count":24,
			"type":"VEC3"
		},
		{
			"bufferView":125,
			"componentType":5126,
			"count":24,
			"type":"VEC2"
		},
		{
			"bufferView":126,
			"componentType":5126,
			"count":20,
			"max":[
				7.461439609527588,
				5.0114898681640625,
				8.484848022460938
			],
			"min":[
				-7.461452484130859,
				-9.086024284362793,
				-8.484854698181152
			],
			"type":"VEC3"
		},
		{
			"bufferView":127,
			"componentType":5126,
			"count":20,
			"type":"VEC3"
		},
		{
			"bufferView":128,
			"componentType":5126,
			"count":20,
			"type":"VEC2"
		},
		{
			"bufferView":129,
			"componentType":5123,
			"count":30,
			"type":"SCALAR"
		},
		{
			"bufferView":130,
			"componentType":5126,
			"count":16,
			"max":[
				7.461439609527588,
				-9.086024284362793,
				8.484848022460938
			],
			"min":[
				2.1834399700164795,
				-14.072980880737305,
				-8.484854698181152
			],
			"type":"VEC3"
		},
		{
			"bufferView":131,
			"componentType":5126,
			"count":16,
			"type":"VEC3"
		},
		{
			"bufferView":132,
			"componentType":5126,
			"count":16,
			"type":"VEC2"
		},
		{
			"bufferView":133,
			"componentType":5123,
			"count":36,
			"type":"SCALAR"
		},
		{
			"bufferView":134,
			"componentType":5126,
			"count":94,
			"max":[
				20.745014190673828,
				2.412900447845459,
				20.745010375976562
			],
			"min":[
				-20.745014190673828,
				-4.248856544494629,
				-20.745014190673828
			],
			"type":"VEC3"
		},
		{
			"bufferView":135,
			"componentType":5126,
			"count":94,
			"type":"VEC3"
		},
		{
			"bufferView":136,
			"componentType":5126,
			"count":94,
			"type":"VEC2"
		},
		{
			"bufferView":137,
			"componentType":5126,
			"count":24,
			"max":[
				13.168280601501465,
				6.742456436157227,
				8.484848022460938
			],
			"min":[
				-13.168292999267578,
				-14.072980880737305,
				-8.484854698181152
			],
			"type":"VEC3"
		},
		{
			"bufferView":138,
			"componentType":5126,
			"count":24,
			"type":"VEC3"
		},
		{
			"bufferView":139,
			"componentType":5126,
			"count":24,
			"type":"VEC2"
		},
		{
			"bufferView":140,
			"componentType":5123,
			"count":36,
			"type":"SCALAR"
		},
		{
			"bufferView":141,
			"componentType":5126,
			"count":24,
			"max":[
				4.324699878692627,
				0.9999998807907104,
				4.917875289916992
			],
			"min":[
				-4.32471227645874,
				-0.9999998807907104,
				-4.917882442474365
			],
			"type":"VEC3"
		},
		{
			"bufferView":142,
			"componentType":5126,
			"count":24,
			"type":"VEC3"
		},
		{
			"bufferView":143,
			"componentType":5126,
			"count":24,
			"type":"VEC2"
		},
		{
			"bufferView":144,
			"componentType":5126,
			"count":24,
			"max":[
				1.991323471069336,
				1.0129681825637817,
				3.946859121322632
			],
			"min":[
				-1.9913244247436523,
				-0.3417038917541504,
				-3.9468533992767334
			],
			"type":"VEC3"
		},
		{
			"bufferView":145,
			"componentType":5126,
			"count":24,
			"type":"VEC3"
		},
		{
			"bufferView":146,
			"componentType":5126,
			"count":24,
			"type":"VEC2"
		},
		{
			"bufferView":147,
			"componentType":5126,
			"count":24,
			"max":[
				1.991323471069336,
				0.5970041751861572,
				3.946859121322632
			],
			"min":[
				-1.9913244247436523,
				-0.3417038917541504,
				-3.9468533992767334
			],
			"type":"VEC3"
		},
		{
			"bufferView":148,
			"componentType":5126,
			"count":24,
			"type":"VEC3"
		},
		{
			"bufferView":149,
			"componentType":5126,
			"count":24,
			"type":"VEC2"
		},
		{
			"bufferView":150,
			"componentType":5126,
			"count":24,
			"max":[
				1.991323471069336,
				0.5970041751861572,
				3.946859121322632
			],
			"min":[
				-1.9913244247436523,
				-0.3417038917541504,
				-3.9468533992767334
			],
			"type":"VEC3"
		},
		{
			"bufferView":151,
			"componentType":5126,
			"count":24,
			"type":"VEC3"
		},
		{
			"bufferView":152,
			"componentType":5126,
			"count":24,
			"type":"VEC2"
		},
		{
			"bufferView":153,
			"componentType":5126,
			"count":24,
			"max":[
				-0.5725719928741455,
				-3.152601957321167,
				-20.49324607849121
			],
			"min":[
				-4.28617000579834,
				-10.41141414642334,
				-21.569759368896484
			],
			"type":"VEC3"
		},
		{
			"bufferView":154,
			"componentType":5126,
			"count":24,
			"type":"VEC3"
		},
		{
			"bufferView":155,
			"componentType":5126,
			"count":24,
			"type":"VEC2"
		},
		{
			"bufferView":156,
			"componentType":5126,
			"count":24,
			"max":[
				6.802095890045166,
				1.9965248107910156,
				4.382861614227295
			],
			"min":[
				-6.802097320556641,
				-1.8423843383789062,
				-4.382861614227295
			],
			"type":"VEC3"
		},
		{
			"bufferView":157,
			"componentType":5126,
			"count":24,
			"type":"VEC3"
		},
		{
			"bufferView":158,
			"componentType":5126,
			"count":24,
			"type":"VEC2"
		},
		{
			"bufferView":159,
			"componentType":5126,
			"count":24,
			"max":[
				6.802095890045166,
				1.9965248107910156,
				4.382861614227295
			],
			"min":[
				-6.802097320556641,
				-1.8423843383789062,
				-4.382861614227295
			],
			"type":"VEC3"
		},
		{
			"bufferView":160,
			"componentType":5126,
			"count":24,
			"type":"VEC3"
		},
		{
			"bufferView":161,
			"componentType":5126,
			"count":24,
			"type":"VEC2"
		},
		{
			"bufferView":162,
			"componentType":5126,
			"count":32,
			"max":[
				6.802095890045166,
				1.9965248107910156,
				4.382861614227295
			],
			"min":[
				-6.802097320556641,
				-1.8423843383789062,
				-12.33205509185791
			],
			"type":"VEC3"
		},
		{
			"bufferView":163,
			"componentType":5126,
			"count":32,
			"type":"VEC3"
		},
		{
			"bufferView":164,
			"componentType":5126,
			"count":32,
			"type":"VEC2"
		},
		{
			"bufferView":165,
			"componentType":5123,
			"count":60,
			"type":"SCALAR"
		}
	],
	"bufferViews":[
		{
			"buffer":0,
			"byteLength":4380,
			"byteOffset":0,
			"target":34962
		},
		{
			"buffer":0,
			"byteLength":4380,
			"byteOffset":4380,
			"target":34962
		},
		{
			"buffer":0,
			"byteLength":2920,
			"byteOffset":8760,
			"target":34962
		},
		{
			"buffer":0,
			"byteLength":2328,
			"byteOffset":11680,
			"target":34963
		},
		{
			"buffer":0,
			"byteLength":168,
			"byteOffset":14008,
			"target":34962
		},
		{
			"buffer":0,
			"byteLength":168,
			"byteOffset":14176,
			"target":34962
		},
		{
			"buffer":0,
			"byteLength":112,
			"byteOffset":14344,
			"target":34962
		},
		{
			"buffer":0,
			"byteLength":72,
			"byteOffset":14456,
			"target":34963
		},
		{
			"buffer":0,
			"byteLength":168,
			"byteOffset":14528,
			"target":34962
		},
		{
			"buffer":0,
			"byteLength":168,
			"byteOffset":14696,
			"target":34962
		},
		{
			"buffer":0,
			"byteLength":112,
			"byteOffset":14864,
			"target":34962
		},
		{
			"buffer":0,
			"byteLength":168,
			"byteOffset":14976,
			"target":34962
		},
		{
			"buffer":0,
			"byteLength":168,
			"byteOffset":15144,
			"target":34962
		},
		{
			"buffer":0,
			"byteLength":112,
			"byteOffset":15312,
			"target":34962
		},
		{
			"buffer":0,
			"byteLength":181176,
			"byteOffset":15424,
			"target":34962
		},
		{
			"buffer":0,
			"byteLength":181176,
			"byteOffset":196600,
			"target":34962
		},
		{
			"buffer":0,
			"byteLength":120784,
			"byteOffset":377776,
			"target":34962
		},
		{
			"buffer":0,
			"byteLength":160104,
			"byteOffset":498560,
			"target":34963
		},
		{
			"buffer":0,
			"byteLength":168,
			"byteOffset":658664,
			"target":34962
		},
		{
			"buffer":0,
			"byteLength":168,
			"byteOffset":658832,
			"target":34962
		},
		{
			"buffer":0,
			"byteLength":112,
			"byteOffset":659000,
			"target":34962
		},
		{
			"buffer":0,
			"byteLength":168,
			"byteOffset":659112,
			"target":34962
		},
		{
			"buffer":0,
			"byteLength":168,
			"byteOffset":659280,
			"target":34962
		},
		{
			"buffer":0,
			"byteLength":112,
			"byteOffset":659448,
			"target":34962
		},
		{
			"buffer":0,
			"byteLength":168,
			"byteOffset":659560,
			"target":34962
		},
		{
			"buffer":0,
			"byteLength":168,
			"byteOffset":659728,
			"target":34962
		},
		{
			"buffer":0,
			"byteLength":112,
			"byteOffset":659896,
			"target":34962
		},
		{
			"buffer":0,
			"byteLength":168,
			"byteOffset":660008,
			"target":34962
		},
		{
			"buffer":0,
			"byteLength":168,
			"byteOffset":660176,
			"target":34962
		},
		{
			"buffer":0,
			"byteLength":112,
			"byteOffset":660344,
			"target":34962
		},
		{
			"buffer":0,
			"byteLength":168,
			"byteOffset":660456,
			"target":34962
		},
		{
			"buffer":0,
			"byteLength":168,
			"byteOffset":660624,
			"target":34962
		},
		{
			"buffer":0,
			"byteLength":112,
			"byteOffset":660792,
			"target":34962
		},
		{
			"buffer":0,
			"byteLength":168,
			"byteOffset":660904,
			"target":34962
		},
		{
			"buffer":0,
			"byteLength":168,
			"byteOffset":661072,
			"target":34962
		},
		{
			"buffer":0,
			"byteLength":112,
			"byteOffset":661240,
			"target":34962
		},
		{
			"buffer":0,
			"byteLength":168,
			"byteOffset":661352,
			"target":34962
		},
		{
			"buffer":0,
			"byteLength":168,
			"byteOffset":661520,
			"target":34962
		},
		{
			"buffer":0,
			"byteLength":112,
			"byteOffset":661688,
			"target":34962
		},
		{
			"buffer":0,
			"byteLength":168,
			"byteOffset":661800,
			"target":34962
		},
		{
			"buffer":0,
			"byteLength":168,
			"byteOffset":661968,
			"target":34962
		},
		{
			"buffer":0,
			"byteLength":112,
			"byteOffset":662136,
			"target":34962
		},
		{
			"buffer":0,
			"byteLength":168,
			"byteOffset":662248,
			"target":34962
		},
		{
			"buffer":0,
			"byteLength":168,
			"byteOffset":662416,
			"target":34962
		},
		{
			"buffer":0,
			"byteLength":112,
			"byteOffset":662584,
			"target":34962
		},
		{
			"buffer":0,
			"byteLength":181176,
			"byteOffset":662696,
			"target":34962
		},
		{
			"buffer":0,
			"byteLength":181176,
			"byteOffset":843872,
			"target":34962
		},
		{
			"buffer":0,
			"byteLength":120784,
			"byteOffset":1025048,
			"target":34962
		},
		{
			"buffer":0,
			"byteLength":4380,
			"byteOffset":1145832,
			"target":34962
		},
		{
			"buffer":0,
			"byteLength":4380,
			"byteOffset":1150212,
			"target":34962
		},
		{
			"buffer":0,
			"byteLength":2920,
			"byteOffset":1154592,
			"target":34962
		},
		{
			"buffer":0,
			"byteLength":2304,
			"byteOffset":1157512,
			"target":34962
		},
		{
			"buffer":0,
			"byteLength":2304,
			"byteOffset":1159816,
			"target":34962
		},
		{
			"buffer":0,
			"byteLength":1536,
			"byteOffset":1162120,
			"target":34962
		},
		{
			"buffer":0,
			"byteLength":744,
			"byteOffset":1163656,
			"target":34963
		},
		{
			"buffer":0,
			"byteLength":2304,
			"byteOffset":1164400,
			"target":34962
		},
		{
			"buffer":0,
			"byteLength":2304,
			"byteOffset":1166704,
			"target":34962
		},
		{
			"buffer":0,
			"byteLength":1536,
			"byteOffset":1169008,
			"target":34962
		},
		{
			"buffer":0,
			"byteLength":2304,
			"byteOffset":1170544,
			"target":34962
		},
		{
			"buffer":0,
			"byteLength":2304,
			"byteOffset":1172848,
			"target":34962
		},
		{
			"buffer":0,
			"byteLength":1536,
			"byteOffset":1175152,
			"target":34962
		},
		{
			"buffer":0,
			"byteLength":612,
			"byteOffset":1176688,
			"target":34962
		},
		{
			"buffer":0,
			"byteLength":612,
			"byteOffset":1177300,
			"target":34962
		},
		{
			"buffer":0,
			"byteLength":408,
			"byteOffset":1177912,
			"target":34962
		},
		{
			"buffer":0,
			"byteLength":480,
			"byteOffset":1178320,
			"target":34963
		},
		{
			"buffer":0,
			"byteLength":288,
			"byteOffset":1178800,
			"target":34962
		},
		{
			"buffer":0,
			"byteLength":288,
			"byteOffset":1179088,
			"target":34962
		},
		{
			"buffer":0,
			"byteLength":192,
			"byteOffset":1179376,
			"target":34962
		},
		{
			"buffer":0,
			"byteLength":72,
			"byteOffset":1179568,
			"target":34963
		},
		{
			"buffer":0,
			"byteLength":288,
			"byteOffset":1179640,
			"target":34962
		},
		{
			"buffer":0,
			"byteLength":288,
			"byteOffset":1179928,
			"target":34962
		},
		{
			"buffer":0,
			"byteLength":192,
			"byteOffset":1180216,
			"target":34962
		},
		{
			"buffer":0,
			"byteLength":72,
			"byteOffset":1180408,
			"target":34963
		},
		{
			"buffer":0,
			"byteLength":192,
			"byteOffset":1180480,
			"target":34962
		},
		{
			"buffer":0,
			"byteLength":192,
			"byteOffset":1180672,
			"target":34962
		},
		{
			"buffer":0,
			"byteLength":128,
			"byteOffset":1180864,
			"target":34962
		},
		{
			"buffer":0,
			"byteLength":72,
			"byteOffset":1180992,
			"target":34963
		},
		{
			"buffer":0,
			"byteLength":288,
			"byteOffset":1181064,
			"target":34962
		},
		{
			"buffer":0,
			"byteLength":288,
			"byteOffset":1181352,
			"target":34962
		},
		{
			"buffer":0,
			"byteLength":192,
			"byteOffset":1181640,
			"target":34962
		},
		{
			"buffer":0,
			"byteLength":72,
			"byteOffset":1181832,
			"target":34963
		},
		{
			"buffer":0,
			"byteLength":504,
			"byteOffset":1181904,
			"target":34962
		},
		{
			"buffer":0,
			"byteLength":504,
			"byteOffset":1182408,
			"target":34962
		},
		{
			"buffer":0,
			"byteLength":336,
			"byteOffset":1182912,
			"target":34962
		},
		{
			"buffer":0,
			"byteLength":192,
			"byteOffset":1183248,
			"target":34963
		},
		{
			"buffer":0,
			"byteLength":288,
			"byteOffset":1183440,
			"target":34962
		},
		{
			"buffer":0,
			"byteLength":288,
			"byteOffset":1183728,
			"target":34962
		},
		{
			"buffer":0,
			"byteLength":192,
			"byteOffset":1184016,
			"target":34962
		},
		{
			"buffer":0,
			"byteLength":72,
			"byteOffset":1184208,
			"target":34963
		},
		{
			"buffer":0,
			"byteLength":288,
			"byteOffset":1184280,
			"target":34962
		},
		{
			"buffer":0,
			"byteLength":288,
			"byteOffset":1184568,
			"target":34962
		},
		{
			"buffer":0,
			"byteLength":192,
			"byteOffset":1184856,
			"target":34962
		},
		{
			"buffer":0,
			"byteLength":72,
			"byteOffset":1185048,
			"target":34963
		},
		{
			"buffer":0,
			"byteLength":612,
			"byteOffset":1185120,
			"target":34962
		},
		{
			"buffer":0,
			"byteLength":612,
			"byteOffset":1185732,
			"target":34962
		},
		{
			"buffer":0,
			"byteLength":408,
			"byteOffset":1186344,
			"target":34962
		},
		{
			"buffer":0,
			"byteLength":1128,
			"byteOffset":1186752,
			"target":34962
		},
		{
			"buffer":0,
			"byteLength":1128,
			"byteOffset":1187880,
			"target":34962
		},
		{
			"buffer":0,
			"byteLength":752,
			"byteOffset":1189008,
			"target":34962
		},
		{
			"buffer":0,
			"byteLength":744,
			"byteOffset":1189760,
			"target":34963
		},
		{
			"buffer":0,
			"byteLength":576,
			"byteOffset":1190504,
			"target":34962
		},
		{
			"buffer":0,
			"byteLength":576,
			"byteOffset":1191080,
			"target":34962
		},
		{
			"buffer":0,
			"byteLength":384,
			"byteOffset":1191656,
			"target":34962
		},
		{
			"buffer":0,
			"byteLength":264,
			"byteOffset":1192040,
			"target":34963
		},
		{
			"buffer":0,
			"byteLength":288,
			"byteOffset":1192304,
			"target":34962
		},
		{
			"buffer":0,
			"byteLength":288,
			"byteOffset":1192592,
			"target":34962
		},
		{
			"buffer":0,
			"byteLength":192,
			"byteOffset":1192880,
			"target":34962
		},
		{
			"buffer":0,
			"byteLength":72,
			"byteOffset":1193072,
			"target":34963
		},
		{
			"buffer":0,
			"byteLength":240,
			"byteOffset":1193144,
			"target":34962
		},
		{
			"buffer":0,
			"byteLength":240,
			"byteOffset":1193384,
			"target":34962
		},
		{
			"buffer":0,
			"byteLength":160,
			"byteOffset":1193624,
			"target":34962
		},
		{
			"buffer":0,
			"byteLength":72,
			"byteOffset":1193784,
			"target":34963
		},
		{
			"buffer":0,
			"byteLength":288,
			"byteOffset":1193856,
			"target":34962
		},
		{
			"buffer":0,
			"byteLength":288,
			"byteOffset":1194144,
			"target":34962
		},
		{
			"buffer":0,
			"byteLength":192,
			"byteOffset":1194432,
			"target":34962
		},
		{
			"buffer":0,
			"byteLength":192,
			"byteOffset":1194624,
			"target":34962
		},
		{
			"buffer":0,
			"byteLength":192,
			"byteOffset":1194816,
			"target":34962
		},
		{
			"buffer":0,
			"byteLength":128,
			"byteOffset":1195008,
			"target":34962
		},
		{
			"buffer":0,
			"byteLength":60,
			"byteOffset":1195136,
			"target":34963
		},
		{
			"buffer":0,
			"byteLength":240,
			"byteOffset":1195196,
			"target":34962
		},
		{
			"buffer":0,
			"byteLength":240,
			"byteOffset":1195436,
			"target":34962
		},
		{
			"buffer":0,
			"byteLength":160,
			"byteOffset":1195676,
			"target":34962
		},
		{
			"buffer":0,
			"byteLength":72,
			"byteOffset":1195836,
			"target":34963
		},
		{
			"buffer":0,
			"byteLength":288,
			"byteOffset":1195908,
			"target":34962
		},
		{
			"buffer":0,
			"byteLength":288,
			"byteOffset":1196196,
			"target":34962
		},
		{
			"buffer":0,
			"byteLength":192,
			"byteOffset":1196484,
			"target":34962
		},
		{
			"buffer":0,
			"byteLength":240,
			"byteOffset":1196676,
			"target":34962
		},
		{
			"buffer":0,
			"byteLength":240,
			"byteOffset":1196916,
			"target":34962
		},
		{
			"buffer":0,
			"byteLength":160,
			"byteOffset":1197156,
			"target":34962
		},
		{
			"buffer":0,
			"byteLength":60,
			"byteOffset":1197316,
			"target":34963
		},
		{
			"buffer":0,
			"byteLength":192,
			"byteOffset":1197376,
			"target":34962
		},
		{
			"buffer":0,
			"byteLength":192,
			"byteOffset":1197568,
			"target":34962
		},
		{
			"buffer":0,
			"byteLength":128,
			"byteOffset":1197760,
			"target":34962
		},
		{
			"buffer":0,
			"byteLength":72,
			"byteOffset":1197888,
			"target":34963
		},
		{
			"buffer":0,
			"byteLength":1128,
			"byteOffset":1197960,
			"target":34962
		},
		{
			"buffer":0,
			"byteLength":1128,
			"byteOffset":1199088,
			"target":34962
		},
		{
			"buffer":0,
			"byteLength":752,
			"byteOffset":1200216,
			"target":34962
		},
		{
			"buffer":0,
			"byteLength":288,
			"byteOffset":1200968,
			"target":34962
		},
		{
			"buffer":0,
			"byteLength":288,
			"byteOffset":1201256,
			"target":34962
		},
		{
			"buffer":0,
			"byteLength":192,
			"byteOffset":1201544,
			"target":34962
		},
		{
			"buffer":0,
			"byteLength":72,
			"byteOffset":1201736,
			"target":34963
		},
		{
			"buffer":0,
			"byteLength":288,
			"byteOffset":1201808,
			"target":34962
		},
		{
			"buffer":0,
			"byteLength":288,
			"byteOffset":1202096,
			"target":34962
		},
		{
			"buffer":0,
			"byteLength":192,
			"byteOffset":1202384,
			"target":34962
		},
		{
			"buffer":0,
			"byteLength":288,
			"byteOffset":1202576,
			"target":34962
		},
		{
			"buffer":0,
			"byteLength":288,
			"byteOffset":1202864,
			"target":34962
		},
		{
			"buffer":0,
			"byteLength":192,
			"byteOffset":1203152,
			"target":34962
		},
		{
			"buffer":0,
			"byteLength":288,
			"byteOffset":1203344,
			"target":34962
		},
		{
			"buffer":0,
			"byteLength":288,
			"byteOffset":1203632,
			"target":34962
		},
		{
			"buffer":0,
			"byteLength":192,
			"byteOffset":1203920,
			"target":34962
		},
		{
			"buffer":0,
			"byteLength":288,
			"byteOffset":1204112,
			"target":34962
		},
		{
			"buffer":0,
			"byteLength":288,
			"byteOffset":1204400,
			"target":34962
		},
		{
			"buffer":0,
			"byteLength":192,
			"byteOffset":1204688,
			"target":34962
		},
		{
			"buffer":0,
			"byteLength":288,
			"byteOffset":1204880,
			"target":34962
		},
		{
			"buffer":0,
			"byteLength":288,
			"byteOffset":1205168,
			"target":34962
		},
		{
			"buffer":0,
			"byteLength":192,
			"byteOffset":1205456,
			"target":34962
		},
		{
			"buffer":0,
			"byteLength":288,
			"byteOffset":1205648,
			"target":34962
		},
		{
			"buffer":0,
			"byteLength":288,
			"byteOffset":1205936,
			"target":34962
		},
		{
			"buffer":0,
			"byteLength":192,
			"byteOffset":1206224,
			"target":34962
		},
		{
			"buffer":0,
			"byteLength":288,
			"byteOffset":1206416,
			"target":34962
		},
		{
			"buffer":0,
			"byteLength":288,
			"byteOffset":1206704,
			"target":34962
		},
		{
			"buffer":0,
			"byteLength":192,
			"byteOffset":1206992,
			"target":34962
		},
		{
			"buffer":0,
			"byteLength":384,
			"byteOffset":1207184,
			"target":34962
		},
		{
			"buffer":0,
			"byteLength":384,
			"byteOffset":1207568,
			"target":34962
		},
		{
			"buffer":0,
			"byteLength":256,
			"byteOffset":1207952,
			"target":34962
		},
		{
			"buffer":0,
			"byteLength":120,
			"byteOffset":1208208,
			"target":34963
		}
	],
	"samplers":[
		{
			"magFilter":9729,
			"minFilter":9987
		}
	],
	"buffers":[
		{
			"byteLength":1208328,
			"uri":"level_1.bin"
		}
	]
}
